<svg id="Layer_1" data-name="Layer 1" xmlns="http://www.w3.org/2000/svg" viewBox="0 0 342.56 81.37"><defs><style>.cls-1{fill:#496447;}.cls-2{fill:#f8f3eb;}.cls-3{fill:#413e43;}.cls-4{fill:#344334;}.cls-5{fill:#0c060e;}.cls-6{fill:#6c6d4a;}.cls-7{fill:#41402f;}.cls-8{fill:#d3c5a3;}.cls-9{fill:#c78041;}</style></defs><title>leaves</title><g id="_Group_" data-name="&lt;Group&gt;"><path id="_Compound_Path_" data-name="&lt;Compound Path&gt;" class="cls-1" d="M294.58,62.45a15.38,15.38,0,0,0,1.26-6A16.66,16.66,0,0,0,299,54.29a43.42,43.42,0,0,0,3.65-2.74c3.28.37,6.45.62,11.4,1.58a10.64,10.64,0,0,1-1,.62,70.24,70.24,0,0,1-8.88,3.09c-1.39-2.65-6.45-1.44-6.28,1a2.17,2.17,0,0,0,.91,1.39,3,3,0,0,0,1.69.59,4.05,4.05,0,0,0,2.53-.59c1.16-.61,1.3-1.12,1.34-1.62a36,36,0,0,0,10.82-4.27c9.46,1.87,11.38,1.94,13.24,2.56.25.07.4,0,.47-.17a.35.35,0,0,0-.15-.47c-1.08-.5-15.31-3.34-16.46-3.55a9.56,9.56,0,0,0-.71-2,10.66,10.66,0,0,0-1.76-2.59c2.23-2.12-1.44-6.72-4.57-6s1.27,7.65,3.89,6.45a9.23,9.23,0,0,1,2.33,4c-1.34-.23-3.24-.5-5.05-.68,0-1.64-11.59-9.84-12.92-10.81.72-1.28-.35-3.69-3.18-4.56a4.41,4.41,0,0,0-.72-.16,3.05,3.05,0,0,0-1.28.05,2,2,0,0,0-1.3,1.45c-.52,2.56,4,5,5.3,4.24a1.39,1.39,0,0,0,.67-.36c3.16,2.27,7.59,5.76,8.07,6.16-.43-.12-4-1.1-4.52-1.22-1.32-1.93-4.81-2.15-5.31-.9-1.7,2.24,5.47,4.53,5.58,1.77,1.19.3,2,.53,2.89.76,1.32.32,3.22.27,5.17,3.37L299,50.21q-1.29-.1-2.58-.15a14.37,14.37,0,0,1-2.87,0c-.4-.63-4.12-2.68-4.82-3a7.47,7.47,0,0,0-.42-1.29c-.8-2-1-2.36-3.41-5.78.62-.36.67-1.35.53-2A2.9,2.9,0,0,0,285,36.8c-.56-1-1.83-2.29-2.94-1.89-2.7,1,0,5.5,2.08,5.37a22.11,22.11,0,0,1,3.24,6.07,30.71,30.71,0,0,1-3.46-1.59c-1.83-.9-1.45-.57-9.4-3.89.86-2.68-5.64-4.57-5.44-1.73.13,1.73,3.25,3.09,4.36,2.54a1.84,1.84,0,0,0,.66-.25c1.4.58,8.55,3.52,9.9,4.23a33.54,33.54,0,0,1-6.87-.25c-.48-2.42-5.23-3.16-5.06-.7.13,1.79,1.89,2.53,3.58,2.4a1.63,1.63,0,0,0,1.46-1,28.39,28.39,0,0,0,5.45.29c.57,0,1.08,0,1.68-.06a6.57,6.57,0,0,1,3.4,1.11,34.9,34.9,0,0,1,4.33,2.66,109.76,109.76,0,0,0-14.21,1.52c-1.19-2.73-7.56-.22-3.67,2.07a2.81,2.81,0,0,0,1.4.29c1-.07,2.26-.72,2.35-1.68l.66-.16-.08,0a64.82,64.82,0,0,1,7.61-.94c-1.8,1.9-2.17,2.09-4.22,2.69a2.59,2.59,0,0,0-3.29-.66c-2.11,1-1.35,3,.28,3.34,1.2.29,3.82-.34,3.3-2.06a7.13,7.13,0,0,0,4.1-2.5,5.06,5.06,0,0,0,.73-.79s0-.07,0-.1a60.69,60.69,0,0,1,14.7.3c-1.32,1.1-7.64,5.56-10.9,7a15.65,15.65,0,0,0-4.77-2,2.07,2.07,0,0,0-1.22-1.32c-2.46-1.23-4.24,2.35,0,2.6a1.71,1.71,0,0,0,.63-.08c.05,0,.43-.27.43-.27a13.54,13.54,0,0,1,3.81,1.48c-1.88.77-1.64.74-5,1.89-2.08-2.16-7.75.63-5.13,2.78,1.6,1.3,5.79,1,5.57-1.82,0,0,2.22-.79,3.79-1.45,1-.44,2-.83,3-1.31a24.53,24.53,0,0,0,3-1.84,12.39,12.39,0,0,1-1,5c-1.29-.44-3.93.55-3.66,2.79a2.19,2.19,0,0,0,2.3,2A2.5,2.5,0,0,0,295,65.2a4.18,4.18,0,0,0,.26-.85A1.77,1.77,0,0,0,294.58,62.45ZM284,55.77Z" transform="translate(-20.46 -9.31)"/><g id="_Group_2" data-name="&lt;Group&gt;"><path id="_Path_" data-name="&lt;Path&gt;" class="cls-2" d="M282.71,30.18c5.3-2.72-1.71-12.57-6-6.94C274,27,279.06,33.52,282.71,30.18Z" transform="translate(-20.46 -9.31)"/><path id="_Compound_Path_2" data-name="&lt;Compound Path&gt;" class="cls-2" d="M303.41,17.28a3.65,3.65,0,0,0-2.26-1.71,2.89,2.89,0,0,0-2.83,4.54,5.9,5.9,0,0,0,2.06,1.47,2.68,2.68,0,0,0,1.88.28,2.53,2.53,0,0,0,1.73-3A4.73,4.73,0,0,0,303.41,17.28Z" transform="translate(-20.46 -9.31)"/><path id="_Path_2" data-name="&lt;Path&gt;" class="cls-2" d="M294,37.15a.77.77,0,0,0-.51.58,4.22,4.22,0,0,0,.4,3.46c1.47,2.75,6,.25,4.23-2.82-.93-1.65-1.9-1.93-2.68-1.93A1.78,1.78,0,0,0,294,37.15Z" transform="translate(-20.46 -9.31)"/><path id="_Path_3" data-name="&lt;Path&gt;" class="cls-2" d="M292.85,17a1.2,1.2,0,0,0-.61-.36,1.1,1.1,0,0,0-1.35.87c0,.09,0,.17,0,.26a1.16,1.16,0,0,0,.36.78C292.07,20.39,294.5,18.86,292.85,17Z" transform="translate(-20.46 -9.31)"/><path id="_Path_4" data-name="&lt;Path&gt;" class="cls-3" d="M300.68,20.15a.39.39,0,0,0-.41.25c-.1.27.09.64.13.92.07.47.14.94.19,1.42a12.77,12.77,0,0,1,.05,2.55c-1-2.15-2-3.56-3.29-6.06-.5-1-3.74-7.75-4.65-7.14a.48.48,0,0,0-.13.66,46.47,46.47,0,0,1,4.05,7.17,25.23,25.23,0,0,1-2.87-1.52c-.59-.4-1.38-1.19-1.79-.73a.48.48,0,0,0,.05.67,24.4,24.4,0,0,0,2.36,1.53,12.56,12.56,0,0,0,1.5.78c.36.15.76.16,1.1.34a1.69,1.69,0,0,1,.67.84c.35.63.72,1.25,1.08,1.88.28.47.54.94.78,1.43.14.28.27.57.4.86s.51.88.47,1.13a.44.44,0,0,0,.2.45,18.11,18.11,0,0,0,3.12,5.75c-3.08-2-5.53-3.51-7.16-4.5,0-.06-2.63-4.47-2.66-4.52a.48.48,0,0,0-.79.53c.53.82,1.2,2,1.74,2.95-3.24-1.95-4.63-2.81-7.5-4.6a44.1,44.1,0,0,0-3.47-6.89.48.48,0,1,0-.79.53c.64,1.13,1.31,2.24,1.9,3.38,0,.09.08.16,0,.07.32.67.6,1.35.89,2a78.86,78.86,0,0,0-10.65-5.59.54.54,0,1,0-.47,1,89,89,0,0,1,9.57,4.91c2.83,1.71,5.61,3.49,8.46,5.19l.78.47a54,54,0,0,1-8.79-1.63l.07,0-.11,0c-.31-.11-1.34-.69-1.63-.5s-.19.66,0,.86a1.75,1.75,0,0,0,.72.33c.55.2,1.09.38,1.64.54,1.1.33,2.22.6,3.35.83s2.26.39,3.4.52l1.72.17.9.06c.18,0,.61,0,.76.05,6.25,3.76,6.9,4.2,8.52,5.24l2.65,1.83c-8.94-1.18-9.89-1.54-16.07-3.38a.47.47,0,0,0-.51.27.47.47,0,0,0,0,.47c.41.59,9.06,2.47,9.81,2.6,1.95.35,1.26.28,3.32.57A11.52,11.52,0,0,1,300,38.45a12.92,12.92,0,0,1-1.39.2c-.62,0-1.25.07-1.88.09a.47.47,0,0,0-.39.27.53.53,0,0,0,0,.25.49.49,0,0,0,.52.43,23.16,23.16,0,0,0,3.11-.26c1.12-.2,4.24-1.33,4.94-2.16a21.89,21.89,0,0,1,3.82.62,78,78,0,0,1,11.87,10c-.05,0,.06.06.21.28a.53.53,0,0,0,.87-.59,27.1,27.1,0,0,0-4.87-4.7c-1.77-1.45-3.59-2.84-5.44-4.21a3.08,3.08,0,0,1-.69-.61,3.24,3.24,0,0,1-.31-.8,7.58,7.58,0,0,0-.74-1.41c-.56-.88-1.21-1.7-1.85-2.53l-.05-.06A13.92,13.92,0,0,0,305.79,31a.48.48,0,0,0-.47.74c.69.85,1.37,1.71,2,2.58.35.47.7.94,1,1.42a3.38,3.38,0,0,1,.73,1.32c-.48-.3-.93-.6-1.39-.93s-.9-.7-1.36-1a4.7,4.7,0,0,1-.79-.6c-.42-.49-.64-1.1-1-1.61a18.89,18.89,0,0,1-1.44-2.09,19.08,19.08,0,0,1-1-2c-.17-.4-.84-1.48-.76-1.9a14.54,14.54,0,0,0,.23-3.95c0-.54-.12-1.07-.2-1.6-.05-.31,0-.8-.27-1.05A.74.74,0,0,0,300.68,20.15Z" transform="translate(-20.46 -9.31)"/><path id="_Path_5" data-name="&lt;Path&gt;" class="cls-2" d="M275.11,14.13a2.58,2.58,0,0,0-2.2,1c-.57.84-.53.87-.61,1.12a1.79,1.79,0,0,0-.16,2.13C276.49,25.75,281.33,14.06,275.11,14.13Z" transform="translate(-20.46 -9.31)"/><path id="_Path_6" data-name="&lt;Path&gt;" class="cls-2" d="M283.08,18.24c2.16,2.11,5.06-.44,3.22-4.08C282.69,10.1,279.34,16.63,283.08,18.24Z" transform="translate(-20.46 -9.31)"/><path id="_Path_7" data-name="&lt;Path&gt;" class="cls-2" d="M293.08,32.33a2.87,2.87,0,0,0-.15-.37,3,3,0,0,0-3.71-1.16A3.25,3.25,0,0,0,287.6,33c-.19.76.42,1.53.75,2.19a1.15,1.15,0,0,0,.42.54c.2.13.42.2.62.33a2.63,2.63,0,0,0,2.12.44C293.32,36,293.52,33.84,293.08,32.33Z" transform="translate(-20.46 -9.31)"/><path id="_Compound_Path_3" data-name="&lt;Compound Path&gt;" class="cls-2" d="M290.06,25.79c2.19,4.32,7.82-1,3.77-4.65C290.22,18.29,287.41,23.3,290.06,25.79Z" transform="translate(-20.46 -9.31)"/><path id="_Compound_Path_4" data-name="&lt;Compound Path&gt;" class="cls-2" d="M293.14,9.32a3,3,0,0,0-2.37,1.76c-2.33,4.87,6.52,8,6.39,2A3.85,3.85,0,0,0,293.14,9.32Z" transform="translate(-20.46 -9.31)"/><path id="_Compound_Path_5" data-name="&lt;Compound Path&gt;" class="cls-2" d="M300.46,31.65c3.91,5.73,9.54-.25,5.29-4.39C302.13,23.75,297.69,27.61,300.46,31.65Z" transform="translate(-20.46 -9.31)"/><path id="_Path_8" data-name="&lt;Path&gt;" class="cls-2" d="M284.74,26.62h0Z" transform="translate(-20.46 -9.31)"/><path id="_Path_9" data-name="&lt;Path&gt;" class="cls-2" d="M285,20.23l0,.05S285,20.25,285,20.23Z" transform="translate(-20.46 -9.31)"/></g><path id="_Path_10" data-name="&lt;Path&gt;" class="cls-4" d="M346.73,26.89a3.65,3.65,0,0,1,.21,1.54c-.16,7-2.64,16.47-5.24,22.68,2.37,5.11,3.15,6.48,3.58,7.68.72-4,2-8.68,5.81-16.8.39-.82.85-1.6,1.29-2.38.23-.44.47-.88.72-1.3.1-.21.22-.4.32-.6a3.93,3.93,0,0,1,.41-.69,1.45,1.45,0,0,1,.18-.16.82.82,0,0,1,.79,0c.6.3.5,1,.42,1.61v.09c-.18,4.86-4.82,19.2-8.57,23.49l-.1.17c.84,1.86,2.57,6.73,2.89,7.73,2.12-10.45,2.38-7.45,5-14.54.52-1.36,1-2.69,1.58-4,.25-.6.42-1.24.67-1.83a2.88,2.88,0,0,1,.5-.89l0-.05a.92.92,0,0,1,1.28-.11,1.25,1.25,0,0,1,.28,1.15c-.45,3.06.56,1.49-1.43,7.62a.15.15,0,0,0,0,.07A75.34,75.34,0,0,1,354.87,65c-.28.79-.54,1.6-.79,2.39-.21.58-.38,1.2-.62,1.76s-.77,1.3-1.09,2a7.75,7.75,0,0,1-1.32,2.43c0,.06-.09.14-.07.11s-.24.38-.26.42c.63,2.09.62,1.33,1.2,3.56.5-3,4-11.67,5.37-15.45,0,0,0,0,0-.06s0,0,0-.06a26.32,26.32,0,0,1,.87-2.69c.21-.49.51-1.07,1.14-1.08a.93.93,0,0,1,.86.45,2,2,0,0,1,.25.71,6.71,6.71,0,0,1,0,1.27c0,.36-.05.7-.09,1a16.84,16.84,0,0,1-.72,2.49c-.28.86-.31,1.77-.53,2.67-.12.39-.24.78-.34,1.18s-.25.9-.39,1.34-.35,1-.55,1.54-.37.76-.53,1.14a21.92,21.92,0,0,1-1.11,2.79s0,0,0,0a.3.3,0,0,0,0,.09c-1,3.19-.49,1.56-2.05,4.26a13.31,13.31,0,0,1-1.19,1.63,15.1,15.1,0,0,1,1.17,3.69c.1,1-1.55,1.34-1.64-.08a10,10,0,0,0-.76-2.27h0c-6-.54-18.81-7.09-17.15-9,.89-1,2.74.75,8.69,3.31,3.62,1.49,5.89,1.93,7.66,3.19a35.88,35.88,0,0,0-1.06-3.51c-1.91.12-12-9.67-13.25-11.16l.05.05c-1-1.11-5.12-6.82-4.13-8,.54-.6,1.26-.17,1.89.33,1.43,1.19,11.9,11.59,14.19,14.58-.11-.36-2.65-7.2-2.84-7.57v0s0,0,0,0a.39.39,0,0,1-.06-.11s0,0,0,0l-.08-.14s0-.08-.06-.1v0a22.66,22.66,0,0,1-3.53-1.7c-.74-.39-6.19-5.79-6.82-6.46-2.63-2.72-4-3.08-6.28-6.82-.53-.94-1-1.88,0-2.29,1.16-.35,5.26,4,6.86,5.4,5,4.34,5.89,5.09,7.75,6.9,0-.14-2.55-6-2.61-6.11-2.28-.1-17-12-15.5-13.68.64-.72,2,.43,2.77,1l6.06,4.71c2,1.32,3.84,2.74,4,2.83-4.59-7.37-9.78-8-13.76-23.32-.17-.81-.43-1.42.41-1.76,1.33-.59,5.78,4.74,6.68,5.89a56.3,56.3,0,0,1,4,6.62c1.79,3.34.94,2.87,2.17,6.12a18.45,18.45,0,0,1,.5,2.07c.14.54.61,1.26.36,1.75,0,0,0,0,0,.07.21.29,1.25,2,1.25,2,.11-5.65.74-7.17,2.41-12,.54-1.65,2.12-7.17,3.28-8.5A.84.84,0,0,1,346.73,26.89Z" transform="translate(-20.46 -9.31)"/><g id="_Group_3" data-name="&lt;Group&gt;"><g id="_Group_4" data-name="&lt;Group&gt;"><g id="_Group_5" data-name="&lt;Group&gt;"><path id="_Path_11" data-name="&lt;Path&gt;" class="cls-5" d="M252.45,39l-.31-.13" transform="translate(-20.46 -9.31)"/></g><g id="_Group_6" data-name="&lt;Group&gt;"><g id="_Group_7" data-name="&lt;Group&gt;"><path id="_Path_12" data-name="&lt;Path&gt;" class="cls-5" d="M252.45,38.72l-.31,0A.17.17,0,0,0,252,39l.23.21c.38.34.72-.46.19-.48Z" transform="translate(-20.46 -9.31)"/></g></g></g><g id="_Group_8" data-name="&lt;Group&gt;"><g id="_Group_9" data-name="&lt;Group&gt;"><path id="_Compound_Path_6" data-name="&lt;Compound Path&gt;" class="cls-6" d="M344.71,71.42a12.62,12.62,0,0,0,.09-1.63,1,1,0,0,0,.13-.2c1.6-3.43,2.28-7.69,2.86-11.42a33.34,33.34,0,0,0,.2-10.36c-.91-5.92-3.81-12-9.28-14.91,0,0-.11,0-.12.07a.31.31,0,0,0-.2.14c-3.08,4.7-2.48,11.3-1.2,16.48a85.85,85.85,0,0,0,3.42,10.11,55.77,55.77,0,0,1,2.9,8.15c-.07.37-.14.74-.19,1.1a1,1,0,0,0,.48,1c0,.48,0,1,0,1.4S344.65,71.94,344.71,71.42ZM338.8,34l0-.06.08.57Z" transform="translate(-20.46 -9.31)"/></g><g id="_Group_10" data-name="&lt;Group&gt;"><path id="_Path_13" data-name="&lt;Path&gt;" class="cls-6" d="M249.52,44.08a9.24,9.24,0,0,1,.26,1.69,4.1,4.1,0,0,1-1.53,2.47.72.72,0,0,0,.53,1.2c2.14,0,4.83-.3,5.69-2.66a4.29,4.29,0,0,0,0-2.72c-.34-1.1-1.76-2.57-1.81-3.77l.56-.9c.24-.39-.18-.76-.56-.69l-.25.08a14.37,14.37,0,0,1-1.79-2.43A22.37,22.37,0,0,0,248.81,33c-1.28-1.69-3.22-2.4-5.18-3-.58-.18-.78.7-.23.9,3.2,1.17,3.53,9.28,6.9,10-.17.32-.31.64-.43.93A4.85,4.85,0,0,0,249.52,44.08Z" transform="translate(-20.46 -9.31)"/></g><g id="_Group_11" data-name="&lt;Group&gt;"><path id="_Path_14" data-name="&lt;Path&gt;" class="cls-6" d="M240.17,50.42A6.74,6.74,0,0,0,243.44,49c1.61-1.48,3-5.05,2.05-7.11a.37.37,0,0,0-.67.1v0a4.67,4.67,0,0,0-5.4,1c-2.3,2.22-2.87,5.14-4.81,7.57-.39.49,0,1.45.71,1.16A29.34,29.34,0,0,1,240.17,50.42Z" transform="translate(-20.46 -9.31)"/></g><g id="_Group_12" data-name="&lt;Group&gt;"><path id="_Path_15" data-name="&lt;Path&gt;" class="cls-6" d="M256.49,31.48a4.63,4.63,0,0,1,4.15,2.14,9.4,9.4,0,0,0,1.86,2.3,6.66,6.66,0,0,0,1,.65c-3.3,1.66-5.78,5.67-8.42,7.84a.76.76,0,0,0,.56,1.28c5-.65,11.11-3.17,11.72-8.77l.18,0a.51.51,0,0,0,0-1l-.15,0h0a.31.31,0,0,0,.05-.56c-2.2-1.34-3.12-3.89-5.37-5.21a5.76,5.76,0,0,0-5.93,0A.74.74,0,0,0,256.49,31.48Z" transform="translate(-20.46 -9.31)"/></g><g id="_Group_13" data-name="&lt;Group&gt;"><path id="_Path_16" data-name="&lt;Path&gt;" class="cls-6" d="M276,34.64a16.59,16.59,0,0,0,1.36,1.72c-4.16,1.12-7.6,5.66-9.5,9.32a.81.81,0,0,0,.72,1.18,12.31,12.31,0,0,0,7.29-2c2.61-1.77,3.84-5,6.55-6.44.18,0,.35.06.53.11a.63.63,0,0,0,.45-1.15l-.32-.18a10.15,10.15,0,0,0-3.61-7.93c-3-2.31-7.15-2.37-10.57-3.78a.7.7,0,0,0-.68,1.22A29.33,29.33,0,0,1,276,34.64Z" transform="translate(-20.46 -9.31)"/></g><g id="_Group_14" data-name="&lt;Group&gt;"><path id="_Path_17" data-name="&lt;Path&gt;" class="cls-6" d="M338.64,66.2c-.4-.31-.8-.62-1.2-.91-.84-1.57-2.12-2.74-2.76-4.53a34.41,34.41,0,0,1-1.33-7.82,31.29,31.29,0,0,0-3.09-11A27.1,27.1,0,0,0,312.05,27.9a.63.63,0,0,0-.68.92c1.63,3.41,2.36,7.06,3.51,10.63a37.85,37.85,0,0,0,4.66,9.16c3.63,5.54,8.22,9.65,13.25,13.8-9.7-5-21.37-5.53-31.89-2.52a.37.37,0,0,0-.15.52c11.4,6.1,24.8,9.44,37.65,6.78A.59.59,0,0,0,338.64,66.2Z" transform="translate(-20.46 -9.31)"/></g><g id="_Group_15" data-name="&lt;Group&gt;"><path id="_Compound_Path_7" data-name="&lt;Compound Path&gt;" class="cls-6" d="M312.41,52c.47.52,1.32-.19.95-.78q-.25-.39-.54-.75c.19-4-.86-9.23-3.57-12.25-3.38-3.77-8.57-5.13-12.26-8.54-.4-.36-1.13.16-.77.62,2.87,3.65,3.53,8.48,6.43,12.23,2.15,2.77,4.89,4.84,7.42,7.16-1.81-1.51-4.82-1.61-7-1.53a17.54,17.54,0,0,0-8.78,2.76c-.71.44-.22,1.66.61,1.37,3.56-1.27,7.65,1.52,11.29,1.67a7.86,7.86,0,0,0,6.12-2.11Zm-1.92-1.69a.25.25,0,0,0-.05-.28l.53.49Z" transform="translate(-20.46 -9.31)"/></g><g id="_Group_16" data-name="&lt;Group&gt;"><path id="_Path_18" data-name="&lt;Path&gt;" class="cls-6" d="M284.5,41.39c-3.14,1.56-5.07,4.75-8.55,5.74a.61.61,0,0,0,.19,1.19c5.1.35,17.95,1.27,18.16-6.53a.6.6,0,0,0-1-.45C290.48,40.34,287.27,40,284.5,41.39Z" transform="translate(-20.46 -9.31)"/></g></g><g id="_Group_17" data-name="&lt;Group&gt;"><g id="_Group_18" data-name="&lt;Group&gt;"><path id="_Path_19" data-name="&lt;Path&gt;" class="cls-7" d="M339.79,67.72c-3.14-2.72-7.06-2.78-11-2.81a83.86,83.86,0,0,1-18.6-2.36.06.06,0,0,0,0,.11A66.58,66.58,0,0,0,324.51,65c5.07.28,11-.7,15.23,2.8,0,0,.08,0,.05,0Z" transform="translate(-20.46 -9.31)"/></g></g><g id="_Group_19" data-name="&lt;Group&gt;"><g id="_Group_20" data-name="&lt;Group&gt;"><path id="_Path_20" data-name="&lt;Path&gt;" class="cls-7" d="M340,67.73c-4-4.11-7-7.81-9.09-13.18-1.66-4.22-3-8.45-5.89-12-.07-.07-.2,0-.14.09,3.32,4.55,4.51,10,6.65,15.15a21.14,21.14,0,0,0,8.41,10.07.05.05,0,0,0,.06-.08Z" transform="translate(-20.46 -9.31)"/></g></g><g id="_Group_21" data-name="&lt;Group&gt;"><g id="_Group_22" data-name="&lt;Group&gt;"><path id="_Path_21" data-name="&lt;Path&gt;" class="cls-7" d="M314.79,52.45c-3.12-3.46-8.7-1.67-12.71-1.65-.17,0-.15.23,0,.25,4.41.47,8.74-1.56,12.61,1.51.08,0,.17,0,.1-.11Z" transform="translate(-20.46 -9.31)"/></g></g><g id="_Group_23" data-name="&lt;Group&gt;"><g id="_Group_24" data-name="&lt;Group&gt;"><path id="_Path_22" data-name="&lt;Path&gt;" class="cls-7" d="M315,52.24c-1-1-2.19-1.6-3.22-2.52-1.89-1.67-1.91-3.49-2.71-5.66a17.79,17.79,0,0,0-5-7.16c-.08-.08-.19,0-.11.12a20.73,20.73,0,0,1,3.72,5c.92,1.79,1.2,3.61,1.94,5.43,1,2.4,3.47,3.22,5.29,4.86,0,0,.11,0,.06-.07Z" transform="translate(-20.46 -9.31)"/></g></g><g id="_Group_25" data-name="&lt;Group&gt;"><g id="_Group_26" data-name="&lt;Group&gt;"><path id="_Path_23" data-name="&lt;Path&gt;" class="cls-7" d="M294.79,42.11c-1.48-.88-2.7-.25-4.09.53a30.63,30.63,0,0,1-8.4,3.55c-.12,0-.09.23,0,.21a16.76,16.76,0,0,0,4.84-1.48c2.18-1,5.1-3.72,7.55-2.69a.07.07,0,0,0,.07-.12Z" transform="translate(-20.46 -9.31)"/></g></g><g id="_Group_27" data-name="&lt;Group&gt;"><g id="_Group_28" data-name="&lt;Group&gt;"><path id="_Path_24" data-name="&lt;Path&gt;" class="cls-7" d="M286,37.8a9.17,9.17,0,0,0-7.14-.19,7.31,7.31,0,0,0-2.4,1.83c-1.92,2-3.43,3.17-6.35,3.44-.17,0-.17.27,0,.27a7.74,7.74,0,0,0,5.28-1.81c1-.89,1.8-2.13,3-2.86,2.24-1.4,5.14-1,7.6-.62,0,0,.06,0,0-.06Z" transform="translate(-20.46 -9.31)"/></g></g><g id="_Group_29" data-name="&lt;Group&gt;"><g id="_Group_30" data-name="&lt;Group&gt;"><path id="_Path_25" data-name="&lt;Path&gt;" class="cls-7" d="M284.27,37.73c-2.55-.88-3.84-2.57-5.23-4.77a17.73,17.73,0,0,0-3.79-4,.13.13,0,0,0-.18.19c.82.82,1.67,1.61,2.44,2.48.92,1.05,1.56,2.24,2.42,3.32a8.7,8.7,0,0,0,4.32,2.89s.06-.06,0-.07Z" transform="translate(-20.46 -9.31)"/></g></g><g id="_Group_31" data-name="&lt;Group&gt;"><g id="_Group_32" data-name="&lt;Group&gt;"><path id="_Path_26" data-name="&lt;Path&gt;" class="cls-7" d="M268.84,35.67c-1.82-.36-3.24.7-4.35,2.06a55.67,55.67,0,0,1-5,5.63c-.13.12,0,.34.19.23a16.24,16.24,0,0,0,3.74-3.66c1.45-1.9,2.67-4.15,5.42-4.12a.07.07,0,0,0,0-.14Z" transform="translate(-20.46 -9.31)"/></g></g><g id="_Group_33" data-name="&lt;Group&gt;"><g id="_Group_34" data-name="&lt;Group&gt;"><path id="_Path_27" data-name="&lt;Path&gt;" class="cls-7" d="M267.68,35.46c-2.09.59-3.21-1.5-4.47-2.66a12.45,12.45,0,0,0-2.81-1.91.11.11,0,0,0-.11.19,43.46,43.46,0,0,1,4.36,3.63,3,3,0,0,0,3.05.8,0,0,0,1,0,0,0Z" transform="translate(-20.46 -9.31)"/></g></g><g id="_Group_35" data-name="&lt;Group&gt;"><g id="_Group_36" data-name="&lt;Group&gt;"><path id="_Path_28" data-name="&lt;Path&gt;" class="cls-7" d="M254.34,38.17c-1.43.38-3.1,1-3.38,2.65-.32,2,3.87,9-1.13,8.56-.08,0-.1.13,0,.14a2.24,2.24,0,0,0,2.71-2c.65-3.58-3.6-7.19,1.86-9.2.07,0,0-.15,0-.13Z" transform="translate(-20.46 -9.31)"/></g></g><g id="_Group_37" data-name="&lt;Group&gt;"><g id="_Group_38" data-name="&lt;Group&gt;"><path id="_Path_29" data-name="&lt;Path&gt;" class="cls-7" d="M254.78,37.94c-1.33.53-2.73,1.15-4.08.22-1-.71-1.39-2-1.9-3a9.22,9.22,0,0,0-3.25-3.95c-.19-.13-.36.15-.22.3a16.92,16.92,0,0,1,3.08,4.46A6.69,6.69,0,0,0,250,38.31c1.54,1.32,3.28.55,4.86-.31a0,0,0,0,0,0-.06Z" transform="translate(-20.46 -9.31)"/></g></g><g id="_Group_39" data-name="&lt;Group&gt;"><g id="_Group_40" data-name="&lt;Group&gt;"><path id="_Path_30" data-name="&lt;Path&gt;" class="cls-7" d="M247.32,41.23a42,42,0,0,0-8.6,6.94c-.09.09.05.22.15.14,2.75-2.45,5.67-4.66,8.49-7,0,0,0-.08,0-.06Z" transform="translate(-20.46 -9.31)"/></g></g><g id="_Group_41" data-name="&lt;Group&gt;"><g id="_Group_42" data-name="&lt;Group&gt;"><path id="_Path_31" data-name="&lt;Path&gt;" class="cls-7" d="M341.51,40.7a110.57,110.57,0,0,1,2.95,15.95,103.69,103.69,0,0,1-.19,15.16c0,.32.52.39.57.06a61,61,0,0,0-3.22-31.2c0-.07-.13-.05-.11,0Z" transform="translate(-20.46 -9.31)"/></g></g><g id="_Group_43" data-name="&lt;Group&gt;"><g id="_Group_44" data-name="&lt;Group&gt;"><path id="_Path_32" data-name="&lt;Path&gt;" class="cls-7" d="M240.66,44.64a.6.6,0,0,1,.32-.54c7.93-4.34,14.72-7,21.38-8.23a43.47,43.47,0,0,1,12-.68c6.22.56,12.18,2.73,16.67,4.56,16,6.52,30.73,16,45,25.13a55.84,55.84,0,0,1,7.41,5.35c4.49,4,7.49,9.34,10.39,14.45a.59.59,0,0,1-.22.82.6.6,0,0,1-.82-.23c-2.85-5-5.81-10.22-10.16-14.15a54.4,54.4,0,0,0-7.25-5.23c-14.21-9.12-28.9-18.55-44.79-25-4.42-1.8-10.26-3.94-16.33-4.48a41.79,41.79,0,0,0-11.63.66c-6.53,1.25-13.22,3.83-21,8.1a.59.59,0,0,1-.81-.23A.74.74,0,0,1,240.66,44.64Z" transform="translate(-20.46 -9.31)"/></g></g><g id="_Group_45" data-name="&lt;Group&gt;"><g id="_Group_46" data-name="&lt;Group&gt;"><path id="_Path_33" data-name="&lt;Path&gt;" class="cls-7" d="M261.4,27.35h.08s0,0,0,0h-.08a0,0,0,0,0,0,0Z" transform="translate(-20.46 -9.31)"/></g></g></g><g id="_Group_47" data-name="&lt;Group&gt;"><path id="_Path_34" data-name="&lt;Path&gt;" class="cls-2" d="M323.53,31.68a3.36,3.36,0,0,0-1.91-3.21c-.22-.12-.47-.23-.71-.35a5.6,5.6,0,0,0,3-1.91,2.52,2.52,0,0,0-.59-3.48,3.37,3.37,0,0,0-3.74,0c-.22.12-.44.28-.66.43a5.62,5.62,0,0,0-.08-3.56,2.52,2.52,0,0,0-3.28-1.31,3.39,3.39,0,0,0-2,3.18c0,.34,0,.71,0,1.08a5.84,5.84,0,0,0-3.37-1.86,2.51,2.51,0,0,0-2.73,2.23,3.38,3.38,0,0,0,1.82,3.26,11.29,11.29,0,0,0,1.3.66,6.22,6.22,0,0,0-3.51,2.36,2.5,2.5,0,0,0,.83,3.42,3.35,3.35,0,0,0,3.72-.22c.21-.14.43-.31.64-.48a5.64,5.64,0,0,0,.32,3.55A2.51,2.51,0,0,0,316,36.51a3.36,3.36,0,0,0,1.75-3.3c0-.25-.05-.52-.08-.79a5.64,5.64,0,0,0,3.2,1.57A2.5,2.5,0,0,0,323.53,31.68Z" transform="translate(-20.46 -9.31)"/><g id="_Group_48" data-name="&lt;Group&gt;"><g id="_Group_49" data-name="&lt;Group&gt;"><path id="_Path_35" data-name="&lt;Path&gt;" class="cls-8" d="M316.31,22.63a13.17,13.17,0,0,0-.88,3.77c0,.15.2.13.23,0,.33-1.23.44-2.51.74-3.75,0-.05-.08-.08-.09,0Z" transform="translate(-20.46 -9.31)"/></g><g id="_Group_50" data-name="&lt;Group&gt;"><path id="_Path_36" data-name="&lt;Path&gt;" class="cls-8" d="M315.15,23.48c-.08.84-.52,1.85-.28,2.69,0,.08.16.08.19,0a7.79,7.79,0,0,0,.19-2.68c0-.06-.09-.06-.1,0Z" transform="translate(-20.46 -9.31)"/></g><g id="_Group_51" data-name="&lt;Group&gt;"><path id="_Path_37" data-name="&lt;Path&gt;" class="cls-8" d="M317.07,23.67a8.65,8.65,0,0,0-1.21,2.84c0,.1.1.21.17.1a8.68,8.68,0,0,0,1.1-2.92s0-.05-.06,0Z" transform="translate(-20.46 -9.31)"/></g></g><g id="_Group_52" data-name="&lt;Group&gt;"><g id="_Group_53" data-name="&lt;Group&gt;"><path id="_Path_38" data-name="&lt;Path&gt;" class="cls-8" d="M320,25.75a13.29,13.29,0,0,0-3.61,1.35.12.12,0,0,0,.11.21c1.2-.41,2.34-1,3.54-1.46.06,0,0-.11,0-.1Z" transform="translate(-20.46 -9.31)"/></g><g id="_Group_54" data-name="&lt;Group&gt;"><path id="_Path_39" data-name="&lt;Path&gt;" class="cls-8" d="M318.65,25.26c-.73.39-1.84.59-2.39,1.24a.1.1,0,0,0,.11.16,7.72,7.72,0,0,0,2.32-1.31c.05,0,0-.12,0-.09Z" transform="translate(-20.46 -9.31)"/></g><g id="_Group_55" data-name="&lt;Group&gt;"><path id="_Path_40" data-name="&lt;Path&gt;" class="cls-8" d="M319.56,27a8.73,8.73,0,0,0-3.06.57c-.12,0-.07.19,0,.19a8.69,8.69,0,0,0,3-.69,0,0,0,0,0,0-.07Z" transform="translate(-20.46 -9.31)"/></g></g><g id="_Group_56" data-name="&lt;Group&gt;"><g id="_Group_57" data-name="&lt;Group&gt;"><path id="_Path_41" data-name="&lt;Path&gt;" class="cls-8" d="M319.42,30.54a12.69,12.69,0,0,0-3.11-2.26.12.12,0,0,0-.12.2c1,.78,2.15,1.38,3.17,2.14.05,0,.11,0,.06-.08Z" transform="translate(-20.46 -9.31)"/></g><g id="_Group_58" data-name="&lt;Group&gt;"><path id="_Path_42" data-name="&lt;Path&gt;" class="cls-8" d="M319.09,29.15c-.73-.39-1.5-1.2-2.34-1.3a.1.1,0,0,0-.08.18,7.44,7.44,0,0,0,2.38,1.21,0,0,0,0,0,0-.09Z" transform="translate(-20.46 -9.31)"/></g><g id="_Group_59" data-name="&lt;Group&gt;"><path id="_Path_43" data-name="&lt;Path&gt;" class="cls-8" d="M318.18,30.85A8.64,8.64,0,0,0,316,28.62c-.09-.08-.21,0-.14.14a8.81,8.81,0,0,0,2.25,2.14s.06,0,.05,0Z" transform="translate(-20.46 -9.31)"/></g></g><g id="_Group_60" data-name="&lt;Group&gt;"><g id="_Group_61" data-name="&lt;Group&gt;"><path id="_Path_44" data-name="&lt;Path&gt;" class="cls-8" d="M315.12,32.72a12.71,12.71,0,0,0,.17-3.84c0-.12-.22-.15-.23,0-.1,1.27,0,2.55,0,3.83,0,.06.1.08.1,0Z" transform="translate(-20.46 -9.31)"/></g><g id="_Group_62" data-name="&lt;Group&gt;"><path id="_Path_45" data-name="&lt;Path&gt;" class="cls-8" d="M316.1,31.68c-.08-.83.17-1.91-.21-2.67a.11.11,0,0,0-.2,0A7.82,7.82,0,0,0,316,31.7c0,.05.11,0,.1,0Z" transform="translate(-20.46 -9.31)"/></g><g id="_Group_63" data-name="&lt;Group&gt;"><path id="_Path_46" data-name="&lt;Path&gt;" class="cls-8" d="M314.18,31.85a8.79,8.79,0,0,0,.67-3c0-.11-.15-.17-.19-.06a8.72,8.72,0,0,0-.55,3.07s.05,0,.07,0Z" transform="translate(-20.46 -9.31)"/></g></g><g id="_Group_64" data-name="&lt;Group&gt;"><g id="_Group_65" data-name="&lt;Group&gt;"><path id="_Path_47" data-name="&lt;Path&gt;" class="cls-8" d="M310.67,29.87a12.92,12.92,0,0,0,3.49-1.62c.1-.08,0-.26-.11-.2-1.17.49-2.25,1.2-3.42,1.72a.05.05,0,0,0,0,.1Z" transform="translate(-20.46 -9.31)"/></g><g id="_Group_66" data-name="&lt;Group&gt;"><path id="_Path_48" data-name="&lt;Path&gt;" class="cls-8" d="M312.05,30.26c.69-.45,1.77-.73,2.27-1.42.06-.08,0-.2-.11-.16A7.73,7.73,0,0,0,312,30.17a.05.05,0,0,0,.06.09Z" transform="translate(-20.46 -9.31)"/></g><g id="_Group_67" data-name="&lt;Group&gt;"><path id="_Path_49" data-name="&lt;Path&gt;" class="cls-8" d="M311,28.63a8.72,8.72,0,0,0,3-.79.1.1,0,0,0,0-.2,8.85,8.85,0,0,0-3,.92,0,0,0,0,0,0,.07Z" transform="translate(-20.46 -9.31)"/></g></g><g id="_Group_68" data-name="&lt;Group&gt;"><g id="_Group_69" data-name="&lt;Group&gt;"><path id="_Path_50" data-name="&lt;Path&gt;" class="cls-8" d="M311.41,24.26a13.06,13.06,0,0,0,2.86,2.6c.13.07.21-.11.13-.2-.92-.88-2-1.6-2.92-2.47,0,0-.11,0-.07.07Z" transform="translate(-20.46 -9.31)"/></g><g id="_Group_70" data-name="&lt;Group&gt;"><path id="_Path_51" data-name="&lt;Path&gt;" class="cls-8" d="M311.59,25.68c.69.48,1.36,1.36,2.2,1.56.11,0,.14-.12.08-.18a7.55,7.55,0,0,0-2.23-1.46c-.05,0-.1,0-.05.08Z" transform="translate(-20.46 -9.31)"/></g><g id="_Group_71" data-name="&lt;Group&gt;"><path id="_Path_52" data-name="&lt;Path&gt;" class="cls-8" d="M312.69,24.09a8.73,8.73,0,0,0,1.9,2.47c.09.09.2,0,.15-.14a8.92,8.92,0,0,0-2-2.37s-.07,0-.05,0Z" transform="translate(-20.46 -9.31)"/></g></g><g id="_Group_72" data-name="&lt;Group&gt;"><path id="_Path_53" data-name="&lt;Path&gt;" class="cls-9" d="M315.15,27.68" transform="translate(-20.46 -9.31)"/><g id="_Group_73" data-name="&lt;Group&gt;"><path id="_Path_54" data-name="&lt;Path&gt;" class="cls-9" d="M313.79,28.66a1.68,1.68,0,0,0,2.72-2,1.68,1.68,0,0,0-2.72,2Z" transform="translate(-20.46 -9.31)"/></g></g></g><g id="_Group_74" data-name="&lt;Group&gt;"><path id="_Path_55" data-name="&lt;Path&gt;" class="cls-2" d="M273.05,56.13a3.37,3.37,0,0,0-1.91-3.2c-.23-.13-.48-.24-.72-.35a5.68,5.68,0,0,0,3-1.92,2.5,2.5,0,0,0-.59-3.47,3.35,3.35,0,0,0-3.73,0c-.22.13-.45.28-.67.43a5.62,5.62,0,0,0-.08-3.56,2.51,2.51,0,0,0-3.28-1.3,3.36,3.36,0,0,0-2,3.17c0,.35,0,.72,0,1.09a5.91,5.91,0,0,0-3.37-1.87A2.5,2.5,0,0,0,257,47.35a3.35,3.35,0,0,0,1.82,3.26q.6.35,1.29.66a6.29,6.29,0,0,0-3.51,2.35,2.51,2.51,0,0,0,.83,3.43,3.38,3.38,0,0,0,3.73-.23c.21-.14.42-.31.63-.47a5.64,5.64,0,0,0,.33,3.55A2.52,2.52,0,0,0,265.52,61a3.37,3.37,0,0,0,1.74-3.3c0-.25,0-.53-.07-.79a5.57,5.57,0,0,0,3.2,1.56A2.51,2.51,0,0,0,273.05,56.13Z" transform="translate(-20.46 -9.31)"/><g id="_Group_75" data-name="&lt;Group&gt;"><g id="_Group_76" data-name="&lt;Group&gt;"><path id="_Path_56" data-name="&lt;Path&gt;" class="cls-8" d="M265.82,47.09a12.68,12.68,0,0,0-.87,3.77c0,.14.2.12.23,0,.32-1.23.43-2.51.74-3.75a.05.05,0,0,0-.1,0Z" transform="translate(-20.46 -9.31)"/></g><g id="_Group_77" data-name="&lt;Group&gt;"><path id="_Path_57" data-name="&lt;Path&gt;" class="cls-8" d="M264.66,47.94c-.07.83-.52,1.85-.27,2.68,0,.08.16.09.18,0a7.6,7.6,0,0,0,.19-2.69s-.09-.06-.1,0Z" transform="translate(-20.46 -9.31)"/></g><g id="_Group_78" data-name="&lt;Group&gt;"><path id="_Path_58" data-name="&lt;Path&gt;" class="cls-8" d="M266.59,48.12A8.76,8.76,0,0,0,265.37,51c0,.1.11.21.17.11a8.78,8.78,0,0,0,1.11-2.92,0,0,0,0,0-.06,0Z" transform="translate(-20.46 -9.31)"/></g></g><g id="_Group_79" data-name="&lt;Group&gt;"><g id="_Group_80" data-name="&lt;Group&gt;"><path id="_Path_59" data-name="&lt;Path&gt;" class="cls-8" d="M269.49,50.21a12.72,12.72,0,0,0-3.6,1.35c-.12.07,0,.24.11.2,1.2-.4,2.33-1,3.53-1.46.06,0,0-.11,0-.09Z" transform="translate(-20.46 -9.31)"/></g><g id="_Group_81" data-name="&lt;Group&gt;"><path id="_Path_60" data-name="&lt;Path&gt;" class="cls-8" d="M268.16,49.71c-.73.4-1.83.59-2.39,1.25-.07.08,0,.18.12.16a7.54,7.54,0,0,0,2.32-1.32s0-.12,0-.09Z" transform="translate(-20.46 -9.31)"/></g><g id="_Group_82" data-name="&lt;Group&gt;"><path id="_Path_61" data-name="&lt;Path&gt;" class="cls-8" d="M269.07,51.42A8.76,8.76,0,0,0,266,52c-.11,0-.06.2.05.2a8.76,8.76,0,0,0,3-.7,0,0,0,0,0,0-.06Z" transform="translate(-20.46 -9.31)"/></g></g><g id="_Group_83" data-name="&lt;Group&gt;"><g id="_Group_84" data-name="&lt;Group&gt;"><path id="_Path_62" data-name="&lt;Path&gt;" class="cls-8" d="M268.94,55a13.05,13.05,0,0,0-3.12-2.27.12.12,0,0,0-.12.2c1,.78,2.15,1.38,3.17,2.14.06,0,.12,0,.07-.07Z" transform="translate(-20.46 -9.31)"/></g><g id="_Group_85" data-name="&lt;Group&gt;"><path id="_Path_63" data-name="&lt;Path&gt;" class="cls-8" d="M268.6,53.6c-.72-.39-1.49-1.19-2.34-1.29a.1.1,0,0,0-.08.18,7.76,7.76,0,0,0,2.38,1.21.05.05,0,0,0,0-.1Z" transform="translate(-20.46 -9.31)"/></g><g id="_Group_86" data-name="&lt;Group&gt;"><path id="_Path_64" data-name="&lt;Path&gt;" class="cls-8" d="M267.69,55.3a8.92,8.92,0,0,0-2.15-2.23.11.11,0,0,0-.15.14,8.8,8.8,0,0,0,2.25,2.14s.07,0,.05-.05Z" transform="translate(-20.46 -9.31)"/></g></g><g id="_Group_87" data-name="&lt;Group&gt;"><g id="_Group_88" data-name="&lt;Group&gt;"><path id="_Path_65" data-name="&lt;Path&gt;" class="cls-8" d="M264.64,57.18a12.72,12.72,0,0,0,.16-3.84c0-.12-.22-.15-.23,0-.09,1.27,0,2.56,0,3.83,0,.07.09.08.1,0Z" transform="translate(-20.46 -9.31)"/></g><g id="_Group_89" data-name="&lt;Group&gt;"><path id="_Path_66" data-name="&lt;Path&gt;" class="cls-8" d="M265.62,56.13c-.08-.83.17-1.9-.22-2.67,0-.08-.18-.09-.19,0a7.53,7.53,0,0,0,.31,2.67c0,.06.1,0,.1,0Z" transform="translate(-20.46 -9.31)"/></g><g id="_Group_90" data-name="&lt;Group&gt;"><path id="_Path_67" data-name="&lt;Path&gt;" class="cls-8" d="M263.69,56.31a8.67,8.67,0,0,0,.67-3c0-.11-.15-.17-.19-.06a8.67,8.67,0,0,0-.54,3.07,0,0,0,0,0,.06,0Z" transform="translate(-20.46 -9.31)"/></g></g><g id="_Group_91" data-name="&lt;Group&gt;"><g id="_Group_92" data-name="&lt;Group&gt;"><path id="_Path_68" data-name="&lt;Path&gt;" class="cls-8" d="M260.18,54.32a12.75,12.75,0,0,0,3.49-1.61c.1-.08,0-.26-.11-.21-1.17.5-2.25,1.21-3.41,1.73-.06,0,0,.12,0,.09Z" transform="translate(-20.46 -9.31)"/></g><g id="_Group_93" data-name="&lt;Group&gt;"><path id="_Path_69" data-name="&lt;Path&gt;" class="cls-8" d="M261.56,54.71c.69-.44,1.78-.72,2.28-1.42a.1.1,0,0,0-.12-.15,7.66,7.66,0,0,0-2.22,1.49s0,.12.06.08Z" transform="translate(-20.46 -9.31)"/></g><g id="_Group_94" data-name="&lt;Group&gt;"><path id="_Path_70" data-name="&lt;Path&gt;" class="cls-8" d="M260.52,53.09a8.85,8.85,0,0,0,3-.8.1.1,0,0,0,0-.19,8.58,8.58,0,0,0-3,.92s0,.06,0,.07Z" transform="translate(-20.46 -9.31)"/></g></g><g id="_Group_95" data-name="&lt;Group&gt;"><g id="_Group_96" data-name="&lt;Group&gt;"><path id="_Path_71" data-name="&lt;Path&gt;" class="cls-8" d="M260.92,48.72a13.34,13.34,0,0,0,2.87,2.6c.12.07.21-.12.12-.2-.91-.88-2-1.6-2.91-2.47,0,0-.11,0-.08.07Z" transform="translate(-20.46 -9.31)"/></g><g id="_Group_97" data-name="&lt;Group&gt;"><path id="_Path_72" data-name="&lt;Path&gt;" class="cls-8" d="M261.1,50.14c.69.47,1.36,1.36,2.21,1.55.11,0,.14-.11.08-.18a7.94,7.94,0,0,0-2.24-1.46s-.09.06,0,.09Z" transform="translate(-20.46 -9.31)"/></g><g id="_Group_98" data-name="&lt;Group&gt;"><path id="_Path_73" data-name="&lt;Path&gt;" class="cls-8" d="M262.2,48.55A8.58,8.58,0,0,0,264.11,51c.08.09.19,0,.14-.13a8.59,8.59,0,0,0-2-2.37s-.06,0-.05,0Z" transform="translate(-20.46 -9.31)"/></g></g><g id="_Group_99" data-name="&lt;Group&gt;"><path id="_Path_74" data-name="&lt;Path&gt;" class="cls-9" d="M264.66,52.13" transform="translate(-20.46 -9.31)"/><g id="_Group_100" data-name="&lt;Group&gt;"><path id="_Path_75" data-name="&lt;Path&gt;" class="cls-9" d="M263.31,53.12a1.68,1.68,0,0,0,2.71-2,1.68,1.68,0,0,0-2.71,2Z" transform="translate(-20.46 -9.31)"/></g></g></g><g id="_Group_101" data-name="&lt;Group&gt;"><path id="_Path_76" data-name="&lt;Path&gt;" class="cls-2" d="M362.34,86.49a2.77,2.77,0,0,0-1.58-2.64l-.58-.29A4.66,4.66,0,0,0,362.65,82a2.07,2.07,0,0,0-.49-2.86,2.78,2.78,0,0,0-3.07,0l-.55.36a4.58,4.58,0,0,0-.07-2.93,2.05,2.05,0,0,0-2.69-1.07,2.75,2.75,0,0,0-1.62,2.61c0,.28,0,.59,0,.89a4.81,4.81,0,0,0-2.78-1.53,2.06,2.06,0,0,0-2.24,1.84,2.78,2.78,0,0,0,1.5,2.68c.33.19.69.37,1.06.54a5.17,5.17,0,0,0-2.89,1.94,2.06,2.06,0,0,0,.69,2.82,2.78,2.78,0,0,0,3.06-.18c.18-.12.35-.26.53-.39a4.58,4.58,0,0,0,.27,2.91,2.06,2.06,0,0,0,2.76.89,2.79,2.79,0,0,0,1.44-2.72c0-.21,0-.43-.07-.65a4.65,4.65,0,0,0,2.64,1.29A2.08,2.08,0,0,0,362.34,86.49Z" transform="translate(-20.46 -9.31)"/><g id="_Group_102" data-name="&lt;Group&gt;"><g id="_Group_103" data-name="&lt;Group&gt;"><path id="_Path_77" data-name="&lt;Path&gt;" class="cls-8" d="M356.39,79a10.9,10.9,0,0,0-.72,3.11c0,.11.17.1.19,0,.27-1,.36-2.07.61-3.08,0,0-.07-.07-.08,0Z" transform="translate(-20.46 -9.31)"/></g><g id="_Group_104" data-name="&lt;Group&gt;"><path id="_Path_78" data-name="&lt;Path&gt;" class="cls-8" d="M355.44,79.74a6.2,6.2,0,0,0-.23,2.21.08.08,0,0,0,.15,0,6.29,6.29,0,0,0,.16-2.21s-.08,0-.08,0Z" transform="translate(-20.46 -9.31)"/></g><g id="_Group_105" data-name="&lt;Group&gt;"><path id="_Path_79" data-name="&lt;Path&gt;" class="cls-8" d="M357,79.89a7.27,7.27,0,0,0-1,2.34c0,.08.09.17.14.09a7.11,7.11,0,0,0,.91-2.41s0,0-.05,0Z" transform="translate(-20.46 -9.31)"/></g></g><g id="_Group_106" data-name="&lt;Group&gt;"><g id="_Group_107" data-name="&lt;Group&gt;"><path id="_Path_80" data-name="&lt;Path&gt;" class="cls-8" d="M359.41,81.61a11.07,11.07,0,0,0-3,1.11c-.09.06,0,.2.09.17,1-.33,1.93-.85,2.91-1.2.05,0,0-.09,0-.08Z" transform="translate(-20.46 -9.31)"/></g><g id="_Group_108" data-name="&lt;Group&gt;"><path id="_Path_81" data-name="&lt;Path&gt;" class="cls-8" d="M358.32,81.2c-.61.33-1.51.49-2,1-.06.06,0,.15.09.13a6.32,6.32,0,0,0,1.92-1.09s0-.09,0-.07Z" transform="translate(-20.46 -9.31)"/></g><g id="_Group_109" data-name="&lt;Group&gt;"><path id="_Path_82" data-name="&lt;Path&gt;" class="cls-8" d="M359.07,82.61a7,7,0,0,0-2.52.46.08.08,0,0,0,0,.16,7.12,7.12,0,0,0,2.49-.57s0,0,0,0Z" transform="translate(-20.46 -9.31)"/></g></g><g id="_Group_110" data-name="&lt;Group&gt;"><g id="_Group_111" data-name="&lt;Group&gt;"><path id="_Path_83" data-name="&lt;Path&gt;" class="cls-8" d="M359,85.55a10.87,10.87,0,0,0-2.57-1.86.1.1,0,0,0-.1.16c.83.64,1.77,1.14,2.61,1.77a0,0,0,0,0,.06-.07Z" transform="translate(-20.46 -9.31)"/></g><g id="_Group_112" data-name="&lt;Group&gt;"><path id="_Path_84" data-name="&lt;Path&gt;" class="cls-8" d="M358.68,84.4c-.6-.32-1.23-1-1.93-1.06a.08.08,0,0,0-.06.14,6,6,0,0,0,2,1c.05,0,.08,0,0-.08Z" transform="translate(-20.46 -9.31)"/></g><g id="_Group_113" data-name="&lt;Group&gt;"><path id="_Path_85" data-name="&lt;Path&gt;" class="cls-8" d="M357.93,85.81A7,7,0,0,0,356.16,84c-.08-.06-.18,0-.12.11a7,7,0,0,0,1.85,1.76s.05,0,0,0Z" transform="translate(-20.46 -9.31)"/></g></g><g id="_Group_114" data-name="&lt;Group&gt;"><g id="_Group_115" data-name="&lt;Group&gt;"><path id="_Path_86" data-name="&lt;Path&gt;" class="cls-8" d="M355.42,87.35a10.84,10.84,0,0,0,.13-3.16c0-.1-.18-.13-.19,0-.08,1,0,2.1,0,3.15,0,.06.08.07.09,0Z" transform="translate(-20.46 -9.31)"/></g><g id="_Group_116" data-name="&lt;Group&gt;"><path id="_Path_87" data-name="&lt;Path&gt;" class="cls-8" d="M356.22,86.49a6.44,6.44,0,0,0-.17-2.2c0-.07-.15-.07-.16,0a6,6,0,0,0,.25,2.19s.09,0,.08,0Z" transform="translate(-20.46 -9.31)"/></g><g id="_Group_117" data-name="&lt;Group&gt;"><path id="_Path_88" data-name="&lt;Path&gt;" class="cls-8" d="M354.64,86.63a7.22,7.22,0,0,0,.55-2.49.08.08,0,0,0-.16,0,7.48,7.48,0,0,0-.45,2.52,0,0,0,0,0,.06,0Z" transform="translate(-20.46 -9.31)"/></g></g><g id="_Group_118" data-name="&lt;Group&gt;"><g id="_Group_119" data-name="&lt;Group&gt;"><path id="_Path_89" data-name="&lt;Path&gt;" class="cls-8" d="M351.75,85a10.88,10.88,0,0,0,2.87-1.33c.09-.07,0-.22-.09-.17-1,.41-1.85,1-2.81,1.42-.05,0,0,.1,0,.08Z" transform="translate(-20.46 -9.31)"/></g><g id="_Group_120" data-name="&lt;Group&gt;"><path id="_Path_90" data-name="&lt;Path&gt;" class="cls-8" d="M352.88,85.32c.57-.37,1.47-.6,1.88-1.17a.09.09,0,0,0-.1-.13,6.22,6.22,0,0,0-1.82,1.23s0,.1,0,.07Z" transform="translate(-20.46 -9.31)"/></g><g id="_Group_121" data-name="&lt;Group&gt;"><path id="_Path_91" data-name="&lt;Path&gt;" class="cls-8" d="M352,84a7.08,7.08,0,0,0,2.46-.66.08.08,0,0,0,0-.16,7.28,7.28,0,0,0-2.45.76s0,.06,0,.06Z" transform="translate(-20.46 -9.31)"/></g></g><g id="_Group_122" data-name="&lt;Group&gt;"><g id="_Group_123" data-name="&lt;Group&gt;"><path id="_Path_92" data-name="&lt;Path&gt;" class="cls-8" d="M352.36,80.38a10.65,10.65,0,0,0,2.36,2.14c.1.06.17-.09.1-.16-.75-.73-1.63-1.32-2.4-2,0,0-.09,0-.06,0Z" transform="translate(-20.46 -9.31)"/></g><g id="_Group_124" data-name="&lt;Group&gt;"><path id="_Path_93" data-name="&lt;Path&gt;" class="cls-8" d="M352.51,81.55c.57.39,1.12,1.12,1.81,1.28.09,0,.12-.09.07-.15a6.64,6.64,0,0,0-1.84-1.2s-.08,0,0,.07Z" transform="translate(-20.46 -9.31)"/></g><g id="_Group_125" data-name="&lt;Group&gt;"><path id="_Path_94" data-name="&lt;Path&gt;" class="cls-8" d="M353.41,80.24a7,7,0,0,0,1.57,2c.07.08.16,0,.12-.11a7.17,7.17,0,0,0-1.65-2s-.05,0,0,0Z" transform="translate(-20.46 -9.31)"/></g></g><g id="_Group_126" data-name="&lt;Group&gt;"><path id="_Path_95" data-name="&lt;Path&gt;" class="cls-9" d="M355.44,83.19" transform="translate(-20.46 -9.31)"/><g id="_Group_127" data-name="&lt;Group&gt;"><path id="_Path_96" data-name="&lt;Path&gt;" class="cls-9" d="M354.32,84a1.39,1.39,0,0,0,2.24-1.63A1.39,1.39,0,0,0,354.32,84Z" transform="translate(-20.46 -9.31)"/></g></g></g></g><g id="_Group_128" data-name="&lt;Group&gt;"><path id="_Compound_Path_8" data-name="&lt;Compound Path&gt;" class="cls-1" d="M88.18,64.35a4.18,4.18,0,0,0,.26.85,2.5,2.5,0,0,0,2.48,1.64,2.2,2.2,0,0,0,2.3-2c.27-2.24-2.37-3.23-3.66-2.79a12.23,12.23,0,0,1-1-5,24.53,24.53,0,0,0,3,1.84c1,.48,2,.87,3,1.31,1.57.66,3.79,1.45,3.79,1.45-.22,2.81,4,3.12,5.57,1.82,2.62-2.15-3.06-4.94-5.13-2.78-3.33-1.15-3.09-1.12-5-1.89a13.54,13.54,0,0,1,3.81-1.48s.38.25.43.27a1.71,1.71,0,0,0,.63.08c4.2-.25,2.42-3.83-.05-2.6a2.1,2.1,0,0,0-1.22,1.32,15.69,15.69,0,0,0-4.76,2c-3.26-1.43-9.58-5.89-10.9-7a60.69,60.69,0,0,1,14.7-.3.38.38,0,0,0,0,.1,5,5,0,0,0,.72.79,7.2,7.2,0,0,0,4.1,2.5c-.51,1.72,2.11,2.35,3.31,2.06,1.63-.39,2.39-2.29.28-3.34a2.59,2.59,0,0,0-3.29.66c-2-.6-2.42-.79-4.22-2.69a64.82,64.82,0,0,1,7.61.94l-.09,0,.67.16c.09,1,1.39,1.61,2.35,1.68a2.81,2.81,0,0,0,1.4-.29c3.89-2.29-2.49-4.8-3.67-2.07A109.76,109.76,0,0,0,91.55,50.1a34.9,34.9,0,0,1,4.33-2.66,6.57,6.57,0,0,1,3.4-1.11c.6,0,1.11.05,1.68.06a28.39,28.39,0,0,0,5.45-.29,1.63,1.63,0,0,0,1.46,1c1.69.13,3.45-.61,3.58-2.4.17-2.46-4.58-1.72-5.06.7a33.54,33.54,0,0,1-6.87.25c1.34-.71,8.49-3.65,9.9-4.23a1.84,1.84,0,0,0,.66.25c1.11.55,4.23-.81,4.35-2.54.21-2.84-6.29-1-5.43,1.73-8,3.32-7.57,3-9.4,3.89a30.16,30.16,0,0,1-3.47,1.59,22.21,22.21,0,0,1,3.25-6.07c2.08.13,4.78-4.39,2.08-5.37-1.11-.4-2.38.91-2.94,1.89a2.9,2.9,0,0,0-.43,1.09c-.14.7-.09,1.69.53,2-2.44,3.42-2.61,3.78-3.41,5.78A7.47,7.47,0,0,0,94.79,47c-.7.36-4.42,2.41-4.82,3a14.37,14.37,0,0,1-2.87,0q-1.29,0-2.58.15l-5.86.48c2-3.1,3.85-3,5.18-3.37.91-.23,1.7-.46,2.89-.76.11,2.76,7.28.47,5.57-1.77-.49-1.25-4-1-5.3.9-.53.12-4.09,1.1-4.52,1.22.47-.4,4.91-3.89,8.07-6.16a1.39,1.39,0,0,0,.67.36c1.35.73,5.81-1.68,5.3-4.24a2,2,0,0,0-1.3-1.45,3.05,3.05,0,0,0-1.28-.05,4.41,4.41,0,0,0-.72.16c-2.83.87-3.9,3.28-3.19,4.56-1.32,1-12.92,9.17-12.91,10.81-1.81.18-3.71.45-5.05.68a9.14,9.14,0,0,1,2.33-4c2.62,1.2,6.93-5.76,3.89-6.45s-6.8,3.87-4.57,6A10.66,10.66,0,0,0,72,49.72a9.56,9.56,0,0,0-.71,2c-1.15.21-15.38,3.05-16.46,3.55a.36.36,0,0,0-.16.47c.08.17.23.24.48.17,1.86-.62,3.78-.69,13.24-2.56a36,36,0,0,0,10.82,4.27c0,.5.18,1,1.34,1.62a4.05,4.05,0,0,0,2.53.59,3,3,0,0,0,1.69-.59,2.17,2.17,0,0,0,.91-1.39c.17-2.45-4.89-3.66-6.28-1a70.24,70.24,0,0,1-8.88-3.09,10.64,10.64,0,0,1-1-.62c5-1,8.12-1.21,11.4-1.58a40.39,40.39,0,0,0,3.65,2.74,17,17,0,0,0,3.11,2.21,15.38,15.38,0,0,0,1.26,6A1.77,1.77,0,0,0,88.18,64.35Zm11.33-8.58Z" transform="translate(-20.46 -9.31)"/><g id="_Group_129" data-name="&lt;Group&gt;"><path id="_Path_97" data-name="&lt;Path&gt;" class="cls-2" d="M100.77,30.18c-5.3-2.72,1.71-12.57,6-6.94C109.53,27,104.42,33.52,100.77,30.18Z" transform="translate(-20.46 -9.31)"/><path id="_Compound_Path_9" data-name="&lt;Compound Path&gt;" class="cls-2" d="M79.48,18.85a2.54,2.54,0,0,0,1.74,3,2.68,2.68,0,0,0,1.88-.28,5.9,5.9,0,0,0,2.06-1.47,2.89,2.89,0,0,0-2.83-4.54,3.62,3.62,0,0,0-2.26,1.71A5,5,0,0,0,79.48,18.85Z" transform="translate(-20.46 -9.31)"/><path id="_Path_98" data-name="&lt;Path&gt;" class="cls-2" d="M89.53,37.15a.77.77,0,0,1,.51.58,4.19,4.19,0,0,1-.41,3.46c-1.46,2.75-6,.25-4.23-2.82.94-1.65,1.91-1.93,2.68-1.93A1.79,1.79,0,0,1,89.53,37.15Z" transform="translate(-20.46 -9.31)"/><path id="_Path_99" data-name="&lt;Path&gt;" class="cls-2" d="M90.63,17a1.2,1.2,0,0,1,.61-.36,1.1,1.1,0,0,1,1.35.87c0,.09,0,.17,0,.26a1.26,1.26,0,0,1-.36.78C91.41,20.39,89,18.86,90.63,17Z" transform="translate(-20.46 -9.31)"/><path id="_Path_100" data-name="&lt;Path&gt;" class="cls-3" d="M82.8,20.15a.39.39,0,0,1,.41.25c.1.27-.09.64-.13.92-.07.47-.14.94-.19,1.42a12.77,12.77,0,0,0,0,2.55c1-2.15,2-3.56,3.29-6.06.5-1,3.74-7.75,4.65-7.14a.48.48,0,0,1,.13.66,46.47,46.47,0,0,0-4,7.17,25.23,25.23,0,0,0,2.87-1.52c.59-.4,1.38-1.19,1.79-.73a.49.49,0,0,1,0,.67,24.4,24.4,0,0,1-2.36,1.53,12.56,12.56,0,0,1-1.5.78c-.36.15-.76.16-1.1.34a1.76,1.76,0,0,0-.68.84c-.35.63-.71,1.25-1.07,1.88-.28.47-.54.94-.78,1.43-.14.28-.27.57-.4.86s-.52.88-.47,1.13a.44.44,0,0,1-.2.45,18.11,18.11,0,0,1-3.12,5.75c3.08-2,5.53-3.51,7.16-4.5,0-.06,2.63-4.47,2.66-4.52a.48.48,0,0,1,.79.53c-.53.82-1.21,2-1.74,2.95,3.24-1.95,4.63-2.81,7.5-4.6a44.1,44.1,0,0,1,3.47-6.89.48.48,0,1,1,.79.53c-.64,1.13-1.31,2.24-1.9,3.38,0,.09-.08.16,0,.07-.32.67-.6,1.35-.9,2a79.56,79.56,0,0,1,10.66-5.59A.55.55,0,0,1,109,17a.55.55,0,0,1-.26.72,89,89,0,0,0-9.57,4.91c-2.83,1.71-5.61,3.49-8.46,5.19l-.79.47a54.13,54.13,0,0,0,8.8-1.63l-.07,0,.11,0c.31-.11,1.34-.69,1.63-.5s.18.66,0,.86a1.74,1.74,0,0,1-.73.33c-.54.2-1.08.38-1.64.54-1.1.33-2.21.6-3.34.83s-2.26.39-3.4.52l-1.72.17-.9.06c-.18,0-.61,0-.76.05-6.25,3.76-6.9,4.2-8.52,5.24L76.7,36.55c8.94-1.18,9.89-1.54,16.07-3.38a.48.48,0,0,1,.51.27.47.47,0,0,1,0,.47c-.41.59-9.06,2.47-9.81,2.6-2,.35-1.26.28-3.32.57a11.52,11.52,0,0,0,3.37,1.37,12.74,12.74,0,0,0,1.38.2l1.89.09a.47.47,0,0,1,.39.27.7.7,0,0,1,0,.25.49.49,0,0,1-.52.43,23.16,23.16,0,0,1-3.11-.26c-1.12-.2-4.24-1.33-4.94-2.16a21.89,21.89,0,0,0-3.82.62,78,78,0,0,0-11.87,10s-.06.06-.21.28a.53.53,0,0,1-.87-.59,27.1,27.1,0,0,1,4.87-4.7c1.77-1.45,3.59-2.84,5.43-4.21a2.93,2.93,0,0,0,.7-.61,3.24,3.24,0,0,0,.31-.8,7.58,7.58,0,0,1,.74-1.41c.56-.88,1.21-1.7,1.85-2.53l0-.06A13.92,13.92,0,0,1,77.69,31a.48.48,0,0,1,.47.74c-.69.85-1.37,1.71-2,2.58-.36.47-.7.94-1,1.42a3.26,3.26,0,0,0-.73,1.32c.48-.3.93-.6,1.38-.93s.9-.7,1.37-1a4.7,4.7,0,0,0,.79-.6c.42-.49.64-1.1,1-1.61a18.89,18.89,0,0,0,1.44-2.09,19.08,19.08,0,0,0,1-2c.17-.4.84-1.48.76-1.9A14.54,14.54,0,0,1,81.89,23c0-.54.12-1.07.2-1.6,0-.31,0-.8.27-1.05A.74.74,0,0,1,82.8,20.15Z" transform="translate(-20.46 -9.31)"/><path id="_Path_101" data-name="&lt;Path&gt;" class="cls-2" d="M108.37,14.13a2.58,2.58,0,0,1,2.2,1c.57.84.53.87.61,1.12a1.8,1.8,0,0,1,.16,2.13C107,25.75,102.15,14.06,108.37,14.13Z" transform="translate(-20.46 -9.31)"/><path id="_Path_102" data-name="&lt;Path&gt;" class="cls-2" d="M100.39,18.24c-2.15,2.11-5-.44-3.21-4.08C100.78,10.1,104.14,16.63,100.39,18.24Z" transform="translate(-20.46 -9.31)"/><path id="_Path_103" data-name="&lt;Path&gt;" class="cls-2" d="M90.4,32.33a2.87,2.87,0,0,1,.15-.37,3,3,0,0,1,3.71-1.16A3.25,3.25,0,0,1,95.88,33c.19.76-.42,1.53-.75,2.19a1.15,1.15,0,0,1-.42.54c-.2.13-.42.2-.62.33a2.63,2.63,0,0,1-2.12.44C90.16,36,90,33.84,90.4,32.33Z" transform="translate(-20.46 -9.31)"/><path id="_Compound_Path_10" data-name="&lt;Compound Path&gt;" class="cls-2" d="M89.65,21.14c-4.05,3.65,1.58,9,3.77,4.65C96.06,23.3,93.26,18.29,89.65,21.14Z" transform="translate(-20.46 -9.31)"/><path id="_Compound_Path_11" data-name="&lt;Compound Path&gt;" class="cls-2" d="M86.32,13c-.13,6.07,8.72,2.91,6.39-2a3,3,0,0,0-2.37-1.76A3.85,3.85,0,0,0,86.32,13Z" transform="translate(-20.46 -9.31)"/><path id="_Compound_Path_12" data-name="&lt;Compound Path&gt;" class="cls-2" d="M77.73,27.26C73.47,31.4,79.11,37.38,83,31.65,85.79,27.61,81.35,23.75,77.73,27.26Z" transform="translate(-20.46 -9.31)"/><path id="_Path_104" data-name="&lt;Path&gt;" class="cls-2" d="M98.74,26.62h0Z" transform="translate(-20.46 -9.31)"/><path id="_Path_105" data-name="&lt;Path&gt;" class="cls-2" d="M98.52,20.23l0,.05S98.5,20.25,98.52,20.23Z" transform="translate(-20.46 -9.31)"/></g><path id="_Path_106" data-name="&lt;Path&gt;" class="cls-4" d="M36.74,26.89a3.82,3.82,0,0,0-.2,1.54c.16,7,2.64,16.47,5.24,22.68-2.37,5.11-3.16,6.48-3.59,7.68-.71-4-1.95-8.68-5.8-16.8-.39-.82-.86-1.6-1.29-2.38-.23-.44-.47-.88-.72-1.3-.1-.21-.22-.4-.33-.6a3.89,3.89,0,0,0-.4-.69,1.45,1.45,0,0,0-.18-.16.82.82,0,0,0-.79,0c-.6.3-.51,1-.43,1.61v.09c.18,4.86,4.82,19.2,8.57,23.49l.1.17C36.08,64,34.36,68.9,34,69.9c-2.12-10.45-2.38-7.45-5-14.54-.52-1.36-1-2.69-1.58-4-.25-.6-.42-1.24-.67-1.83a2.91,2.91,0,0,0-.51-.89l0-.05A.93.93,0,0,0,25,48.47a1.24,1.24,0,0,0-.27,1.15c.45,3.06-.56,1.49,1.43,7.62a.15.15,0,0,1,0,.07A75.34,75.34,0,0,0,28.61,65c.28.79.54,1.6.79,2.39.21.58.38,1.2.62,1.76s.77,1.3,1.09,2a7.92,7.92,0,0,0,1.31,2.43c0,.06.1.14.08.11s.24.38.26.42c-.63,2.09-.62,1.33-1.2,3.56-.5-3-4-11.67-5.37-15.45,0,0,0,0,0-.06s0,0,0-.06a26.32,26.32,0,0,0-.87-2.69c-.21-.49-.51-1.07-1.14-1.08a1,1,0,0,0-.87.45,2.13,2.13,0,0,0-.24.71,6.71,6.71,0,0,0,0,1.27c0,.36.05.7.09,1a16.84,16.84,0,0,0,.72,2.49c.28.86.31,1.77.53,2.67.12.39.24.78.34,1.18s.24.9.39,1.34.35,1,.55,1.54.37.76.53,1.14a21.92,21.92,0,0,0,1.11,2.79s0,0,0,0a.3.3,0,0,1,0,.09c1,3.19.49,1.56,2.05,4.26a13.31,13.31,0,0,0,1.19,1.63,15.1,15.1,0,0,0-1.17,3.69c-.1,1,1.55,1.34,1.64-.08a10,10,0,0,1,.76-2.27h0c6-.54,18.81-7.09,17.15-9-.89-1-2.74.75-8.69,3.31-3.62,1.49-5.89,1.93-7.66,3.19.32-1.18.67-2.53,1-3.51,1.92.12,12-9.67,13.26-11.16l-.05.05c1-1.11,5.12-6.82,4.13-8-.54-.6-1.26-.17-1.9.33C47.71,58.71,37.24,69.11,35,72.1c.11-.36,2.65-7.2,2.83-7.57v0s0,0,0,0a.39.39,0,0,0,.06-.11s0,0,0,0l.08-.14s0-.08.06-.1v0a22.66,22.66,0,0,0,3.53-1.7c.74-.39,6.19-5.79,6.82-6.46,2.63-2.72,4-3.08,6.28-6.82.53-.94,1-1.88,0-2.29s-5.25,4-6.85,5.4c-5,4.34-5.89,5.09-7.75,6.9,0-.14,2.55-6,2.61-6.11,2.28-.1,17-12,15.5-13.68-.64-.72-2,.43-2.77,1l-6.06,4.71c-2,1.32-3.84,2.74-4,2.83,4.58-7.37,9.78-8,13.76-23.32.17-.81.43-1.42-.41-1.76-1.33-.59-5.78,4.74-6.68,5.89a56.3,56.3,0,0,0-4,6.62c-1.79,3.34-.94,2.87-2.17,6.12a18.45,18.45,0,0,0-.5,2.07c-.14.54-.62,1.26-.36,1.75,0,0,0,0,0,.07-.21.29-1.25,2-1.25,2-.11-5.65-.74-7.17-2.41-12-.54-1.65-2.12-7.17-3.28-8.5A.85.85,0,0,0,36.74,26.89Z" transform="translate(-20.46 -9.31)"/><g id="_Group_130" data-name="&lt;Group&gt;"><g id="_Group_131" data-name="&lt;Group&gt;"><g id="_Group_132" data-name="&lt;Group&gt;"><path id="_Path_107" data-name="&lt;Path&gt;" class="cls-5" d="M131,39l.31-.13" transform="translate(-20.46 -9.31)"/></g><g id="_Group_133" data-name="&lt;Group&gt;"><g id="_Group_134" data-name="&lt;Group&gt;"><path id="_Path_108" data-name="&lt;Path&gt;" class="cls-5" d="M131,38.72l.31,0a.17.17,0,0,1,.11.29l-.23.21c-.38.34-.72-.46-.19-.48Z" transform="translate(-20.46 -9.31)"/></g></g></g><g id="_Group_135" data-name="&lt;Group&gt;"><g id="_Group_136" data-name="&lt;Group&gt;"><path id="_Compound_Path_13" data-name="&lt;Compound Path&gt;" class="cls-6" d="M39.65,71.32c0-.45,0-.92,0-1.4a1,1,0,0,0,.49-1c0-.36-.12-.73-.2-1.1a57,57,0,0,1,2.91-8.15,85.85,85.85,0,0,0,3.42-10.11c1.28-5.18,1.88-11.78-1.2-16.48a.31.31,0,0,0-.2-.14.09.09,0,0,0-.13-.07c-5.46,2.9-8.36,9-9.27,14.91a33.65,33.65,0,0,0,.19,10.36c.59,3.73,1.27,8,2.87,11.42a1,1,0,0,0,.13.2,12.62,12.62,0,0,0,.09,1.63C38.83,71.94,39.63,71.8,39.65,71.32ZM44.57,34.5l.09-.57,0,.06Z" transform="translate(-20.46 -9.31)"/></g><g id="_Group_137" data-name="&lt;Group&gt;"><path id="_Path_109" data-name="&lt;Path&gt;" class="cls-6" d="M134,44.08a9.21,9.21,0,0,0-.25,1.69,4.1,4.1,0,0,0,1.53,2.47.72.72,0,0,1-.53,1.2c-2.14,0-4.83-.3-5.69-2.66a4.29,4.29,0,0,1,0-2.72c.34-1.1,1.76-2.57,1.81-3.77l-.56-.9c-.24-.39.18-.76.56-.69l.25.08a14.37,14.37,0,0,0,1.79-2.43A22.37,22.37,0,0,1,134.67,33c1.28-1.69,3.22-2.4,5.18-3,.58-.18.78.7.22.9-3.19,1.17-3.52,9.28-6.89,10,.16.32.31.64.43.93A4.84,4.84,0,0,1,134,44.08Z" transform="translate(-20.46 -9.31)"/></g><g id="_Group_138" data-name="&lt;Group&gt;"><path id="_Path_110" data-name="&lt;Path&gt;" class="cls-6" d="M143.31,50.42A6.7,6.7,0,0,1,140,49c-1.61-1.48-3-5.05-2-7.11a.37.37,0,0,1,.67.1v0a4.67,4.67,0,0,1,5.4,1c2.3,2.22,2.87,5.14,4.8,7.57.4.49,0,1.45-.71,1.16A29,29,0,0,0,143.31,50.42Z" transform="translate(-20.46 -9.31)"/></g><g id="_Group_139" data-name="&lt;Group&gt;"><path id="_Path_111" data-name="&lt;Path&gt;" class="cls-6" d="M127,31.48a4.63,4.63,0,0,0-4.15,2.14,9.4,9.4,0,0,1-1.86,2.3,6.66,6.66,0,0,1-1,.65c3.3,1.66,5.78,5.67,8.42,7.84a.76.76,0,0,1-.56,1.28c-5-.65-11.11-3.17-11.72-8.77l-.18,0a.51.51,0,0,1,0-1l.15,0h0a.32.32,0,0,1,0-.56c2.2-1.34,3.12-3.89,5.37-5.21a5.76,5.76,0,0,1,5.93,0A.74.74,0,0,1,127,31.48Z" transform="translate(-20.46 -9.31)"/></g><g id="_Group_140" data-name="&lt;Group&gt;"><path id="_Path_112" data-name="&lt;Path&gt;" class="cls-6" d="M107.5,34.64a16.59,16.59,0,0,1-1.36,1.72c4.16,1.12,7.6,5.66,9.49,9.32a.8.8,0,0,1-.71,1.18,12.36,12.36,0,0,1-7.3-2c-2.6-1.77-3.83-5-6.54-6.44-.18,0-.35.06-.53.11a.63.63,0,0,1-.45-1.15l.31-.18A10.21,10.21,0,0,1,104,29.24c3-2.31,7.16-2.37,10.58-3.78a.7.7,0,0,1,.68,1.22A29.33,29.33,0,0,0,107.5,34.64Z" transform="translate(-20.46 -9.31)"/></g><g id="_Group_141" data-name="&lt;Group&gt;"><path id="_Path_113" data-name="&lt;Path&gt;" class="cls-6" d="M44.84,66.2c.4-.31.8-.62,1.2-.91.84-1.57,2.12-2.74,2.76-4.53a34.41,34.41,0,0,0,1.33-7.82,31.29,31.29,0,0,1,3.09-11A27.1,27.1,0,0,1,71.43,27.9a.63.63,0,0,1,.68.92c-1.63,3.41-2.37,7.06-3.51,10.63a38.21,38.21,0,0,1-4.66,9.16c-3.63,5.54-8.22,9.65-13.25,13.8,9.7-5,21.36-5.53,31.89-2.52a.37.37,0,0,1,.15.52c-11.41,6.1-24.8,9.44-37.65,6.78A.59.59,0,0,1,44.84,66.2Z" transform="translate(-20.46 -9.31)"/></g><g id="_Group_142" data-name="&lt;Group&gt;"><path id="_Compound_Path_14" data-name="&lt;Compound Path&gt;" class="cls-6" d="M71.21,51.86A7.86,7.86,0,0,0,77.33,54C81,53.82,85.06,51,88.62,52.3c.83.29,1.32-.93.61-1.37a17.54,17.54,0,0,0-8.78-2.76c-2.22-.08-5.23,0-7,1.53,2.53-2.32,5.27-4.39,7.42-7.16,2.9-3.75,3.56-8.58,6.43-12.23.36-.46-.37-1-.77-.62-3.69,3.41-8.88,4.77-12.26,8.54-2.71,3-3.76,8.24-3.57,12.25a7.91,7.91,0,0,0-.54.75c-.38.59.48,1.3.95.78Zm1.3-1.33c.17-.17.35-.33.53-.49a.25.25,0,0,0-.05.28Z" transform="translate(-20.46 -9.31)"/></g><g id="_Group_143" data-name="&lt;Group&gt;"><path id="_Path_114" data-name="&lt;Path&gt;" class="cls-6" d="M99,41.39c3.14,1.56,5.07,4.75,8.55,5.74a.61.61,0,0,1-.19,1.19c-5.11.35-18,1.27-18.16-6.53a.6.6,0,0,1,1-.45C93,40.34,96.21,40,99,41.39Z" transform="translate(-20.46 -9.31)"/></g></g><g id="_Group_144" data-name="&lt;Group&gt;"><g id="_Group_145" data-name="&lt;Group&gt;"><path id="_Path_115" data-name="&lt;Path&gt;" class="cls-7" d="M43.69,67.72c3.14-2.72,7.05-2.78,11-2.81a83.94,83.94,0,0,0,18.6-2.36.06.06,0,0,1,0,.11A66.58,66.58,0,0,1,59,65c-5.07.28-11-.7-15.23,2.8,0,0-.08,0-.05,0Z" transform="translate(-20.46 -9.31)"/></g></g><g id="_Group_146" data-name="&lt;Group&gt;"><g id="_Group_147" data-name="&lt;Group&gt;"><path id="_Path_116" data-name="&lt;Path&gt;" class="cls-7" d="M43.5,67.73c4-4.11,7-7.81,9.09-13.18,1.66-4.22,3-8.45,5.89-12,.06-.07.2,0,.14.09-3.32,4.55-4.51,10-6.65,15.15a21.14,21.14,0,0,1-8.41,10.07.05.05,0,0,1-.06-.08Z" transform="translate(-20.46 -9.31)"/></g></g><g id="_Group_148" data-name="&lt;Group&gt;"><g id="_Group_149" data-name="&lt;Group&gt;"><path id="_Path_117" data-name="&lt;Path&gt;" class="cls-7" d="M68.68,52.45C71.81,49,77.39,50.78,81.4,50.8c.16,0,.15.23,0,.25-4.41.47-8.74-1.56-12.61,1.51-.08,0-.17,0-.11-.11Z" transform="translate(-20.46 -9.31)"/></g></g><g id="_Group_150" data-name="&lt;Group&gt;"><g id="_Group_151" data-name="&lt;Group&gt;"><path id="_Path_118" data-name="&lt;Path&gt;" class="cls-7" d="M68.52,52.24c1-1,2.19-1.6,3.22-2.52,1.89-1.67,1.91-3.49,2.71-5.66a17.87,17.87,0,0,1,5-7.16.08.08,0,1,1,.12.12,20.47,20.47,0,0,0-3.72,5c-.92,1.79-1.2,3.61-1.94,5.43-1,2.4-3.47,3.22-5.29,4.86,0,0-.11,0-.06-.07Z" transform="translate(-20.46 -9.31)"/></g></g><g id="_Group_152" data-name="&lt;Group&gt;"><g id="_Group_153" data-name="&lt;Group&gt;"><path id="_Path_119" data-name="&lt;Path&gt;" class="cls-7" d="M88.69,42.11c1.48-.88,2.7-.25,4.09.53a30.63,30.63,0,0,0,8.4,3.55c.12,0,.09.23,0,.21a16.82,16.82,0,0,1-4.85-1.48c-2.17-1-5.09-3.72-7.54-2.69a.07.07,0,0,1-.07-.12Z" transform="translate(-20.46 -9.31)"/></g></g><g id="_Group_154" data-name="&lt;Group&gt;"><g id="_Group_155" data-name="&lt;Group&gt;"><path id="_Path_120" data-name="&lt;Path&gt;" class="cls-7" d="M97.5,37.8a9.17,9.17,0,0,1,7.14-.19,7.41,7.41,0,0,1,2.4,1.83c1.92,2,3.43,3.17,6.35,3.44.17,0,.17.27,0,.27a7.74,7.74,0,0,1-5.28-1.81c-1-.89-1.8-2.13-3-2.86-2.24-1.4-5.14-1-7.6-.62,0,0-.06,0,0-.06Z" transform="translate(-20.46 -9.31)"/></g></g><g id="_Group_156" data-name="&lt;Group&gt;"><g id="_Group_157" data-name="&lt;Group&gt;"><path id="_Path_121" data-name="&lt;Path&gt;" class="cls-7" d="M99.21,37.73c2.55-.88,3.84-2.57,5.23-4.77a17.73,17.73,0,0,1,3.79-4,.13.13,0,0,1,.18.19c-.82.82-1.67,1.61-2.44,2.48-.92,1.05-1.56,2.24-2.42,3.32a8.7,8.7,0,0,1-4.32,2.89s-.06-.06,0-.07Z" transform="translate(-20.46 -9.31)"/></g></g><g id="_Group_158" data-name="&lt;Group&gt;"><g id="_Group_159" data-name="&lt;Group&gt;"><path id="_Path_122" data-name="&lt;Path&gt;" class="cls-7" d="M114.63,35.67c1.83-.36,3.25.7,4.36,2.06a55.67,55.67,0,0,0,5,5.63c.13.12,0,.34-.2.23a16.19,16.19,0,0,1-3.73-3.66c-1.45-1.9-2.67-4.15-5.42-4.12-.08,0-.09-.13,0-.14Z" transform="translate(-20.46 -9.31)"/></g></g><g id="_Group_160" data-name="&lt;Group&gt;"><g id="_Group_161" data-name="&lt;Group&gt;"><path id="_Path_123" data-name="&lt;Path&gt;" class="cls-7" d="M115.8,35.46c2.09.59,3.21-1.5,4.47-2.66a12.23,12.23,0,0,1,2.81-1.91.11.11,0,1,1,.1.19,44.5,44.5,0,0,0-4.35,3.63,3,3,0,0,1-3,.8s0-.06,0,0Z" transform="translate(-20.46 -9.31)"/></g></g><g id="_Group_162" data-name="&lt;Group&gt;"><g id="_Group_163" data-name="&lt;Group&gt;"><path id="_Path_124" data-name="&lt;Path&gt;" class="cls-7" d="M129.14,38.17c1.43.38,3.1,1,3.37,2.65.33,2-3.86,9,1.14,8.56.08,0,.1.13,0,.14a2.26,2.26,0,0,1-2.72-2c-.64-3.58,3.61-7.19-1.85-9.2a.07.07,0,0,1,0-.13Z" transform="translate(-20.46 -9.31)"/></g></g><g id="_Group_164" data-name="&lt;Group&gt;"><g id="_Group_165" data-name="&lt;Group&gt;"><path id="_Path_125" data-name="&lt;Path&gt;" class="cls-7" d="M128.7,37.94c1.33.53,2.73,1.15,4.08.22,1-.71,1.39-2,1.89-3a9.31,9.31,0,0,1,3.26-3.95c.19-.13.36.15.22.3a16.92,16.92,0,0,0-3.08,4.46,6.69,6.69,0,0,1-1.54,2.38c-1.54,1.32-3.28.55-4.86-.31a0,0,0,0,1,0-.06Z" transform="translate(-20.46 -9.31)"/></g></g><g id="_Group_166" data-name="&lt;Group&gt;"><g id="_Group_167" data-name="&lt;Group&gt;"><path id="_Path_126" data-name="&lt;Path&gt;" class="cls-7" d="M136.16,41.23a42,42,0,0,1,8.6,6.94c.09.09,0,.22-.15.14-2.76-2.45-5.67-4.66-8.5-7,0,0,0-.08,0-.06Z" transform="translate(-20.46 -9.31)"/></g></g><g id="_Group_168" data-name="&lt;Group&gt;"><g id="_Group_169" data-name="&lt;Group&gt;"><path id="_Path_127" data-name="&lt;Path&gt;" class="cls-7" d="M42,40.7A109.22,109.22,0,0,0,39,56.65a103.69,103.69,0,0,0,.19,15.16.3.3,0,0,1-.58.06,61.09,61.09,0,0,1,3.23-31.2c0-.07.13-.05.11,0Z" transform="translate(-20.46 -9.31)"/></g></g><g id="_Group_170" data-name="&lt;Group&gt;"><g id="_Group_171" data-name="&lt;Group&gt;"><path id="_Path_128" data-name="&lt;Path&gt;" class="cls-7" d="M142.82,44.64a.6.6,0,0,0-.32-.54c-7.93-4.34-14.72-7-21.38-8.23a43.47,43.47,0,0,0-12-.68c-6.23.56-12.18,2.73-16.67,4.56-16,6.52-30.74,16-45,25.13a55.19,55.19,0,0,0-7.41,5.35c-4.49,4-7.49,9.34-10.4,14.45a.6.6,0,1,0,1.05.59c2.85-5,5.81-10.22,10.16-14.15a54.4,54.4,0,0,1,7.25-5.23c14.21-9.12,28.9-18.55,44.79-25,4.42-1.8,10.26-3.94,16.33-4.48a41.79,41.79,0,0,1,11.63.66c6.53,1.25,13.22,3.83,21,8.1a.59.59,0,0,0,.81-.23A.74.74,0,0,0,142.82,44.64Z" transform="translate(-20.46 -9.31)"/></g></g><g id="_Group_172" data-name="&lt;Group&gt;"><g id="_Group_173" data-name="&lt;Group&gt;"><path id="_Path_129" data-name="&lt;Path&gt;" class="cls-7" d="M122.07,27.35H122s0,0,0,0h.08s0,0,0,0Z" transform="translate(-20.46 -9.31)"/></g></g></g><g id="_Group_174" data-name="&lt;Group&gt;"><path id="_Path_130" data-name="&lt;Path&gt;" class="cls-2" d="M60,31.68a3.36,3.36,0,0,1,1.91-3.21c.22-.12.47-.23.71-.35a5.6,5.6,0,0,1-3-1.91,2.52,2.52,0,0,1,.59-3.48,3.35,3.35,0,0,1,3.73,0,6.9,6.9,0,0,1,.67.43,5.62,5.62,0,0,1,.08-3.56,2.52,2.52,0,0,1,3.28-1.31,3.39,3.39,0,0,1,2,3.18c0,.34,0,.71,0,1.08a5.84,5.84,0,0,1,3.37-1.86A2.51,2.51,0,0,1,76,22.89a3.38,3.38,0,0,1-1.82,3.26,11.29,11.29,0,0,1-1.3.66,6.22,6.22,0,0,1,3.51,2.36,2.5,2.5,0,0,1-.83,3.42,3.35,3.35,0,0,1-3.72-.22c-.21-.14-.43-.31-.64-.48a5.64,5.64,0,0,1-.32,3.55,2.51,2.51,0,0,1-3.36,1.07,3.36,3.36,0,0,1-1.75-3.3c0-.25,0-.52.08-.79A5.64,5.64,0,0,1,62.61,34,2.5,2.5,0,0,1,60,31.68Z" transform="translate(-20.46 -9.31)"/><g id="_Group_175" data-name="&lt;Group&gt;"><g id="_Group_176" data-name="&lt;Group&gt;"><path id="_Path_131" data-name="&lt;Path&gt;" class="cls-8" d="M67.17,22.63a13.17,13.17,0,0,1,.88,3.77c0,.15-.2.13-.23,0-.33-1.23-.44-2.51-.74-3.75,0-.05.08-.08.09,0Z" transform="translate(-20.46 -9.31)"/></g><g id="_Group_177" data-name="&lt;Group&gt;"><path id="_Path_132" data-name="&lt;Path&gt;" class="cls-8" d="M68.33,23.48c.08.84.52,1.85.28,2.69a.11.11,0,0,1-.19,0,7.79,7.79,0,0,1-.19-2.68c0-.06.09-.06.1,0Z" transform="translate(-20.46 -9.31)"/></g><g id="_Group_178" data-name="&lt;Group&gt;"><path id="_Path_133" data-name="&lt;Path&gt;" class="cls-8" d="M66.4,23.67a8.67,8.67,0,0,1,1.22,2.84c0,.1-.1.21-.17.1a8.92,8.92,0,0,1-1.11-2.92,0,0,0,0,1,.06,0Z" transform="translate(-20.46 -9.31)"/></g></g><g id="_Group_179" data-name="&lt;Group&gt;"><g id="_Group_180" data-name="&lt;Group&gt;"><path id="_Path_134" data-name="&lt;Path&gt;" class="cls-8" d="M63.5,25.75a13.29,13.29,0,0,1,3.61,1.35.12.12,0,0,1-.11.21c-1.21-.41-2.34-1-3.54-1.46-.06,0,0-.11,0-.1Z" transform="translate(-20.46 -9.31)"/></g><g id="_Group_181" data-name="&lt;Group&gt;"><path id="_Path_135" data-name="&lt;Path&gt;" class="cls-8" d="M64.83,25.26c.73.39,1.84.59,2.39,1.24a.1.1,0,0,1-.11.16,7.89,7.89,0,0,1-2.33-1.31s0-.12,0-.09Z" transform="translate(-20.46 -9.31)"/></g><g id="_Group_182" data-name="&lt;Group&gt;"><path id="_Path_136" data-name="&lt;Path&gt;" class="cls-8" d="M63.92,27a8.73,8.73,0,0,1,3.06.57c.12,0,.06.19,0,.19a8.8,8.8,0,0,1-3-.69,0,0,0,0,1,0-.07Z" transform="translate(-20.46 -9.31)"/></g></g><g id="_Group_183" data-name="&lt;Group&gt;"><g id="_Group_184" data-name="&lt;Group&gt;"><path id="_Path_137" data-name="&lt;Path&gt;" class="cls-8" d="M64.06,30.54a12.69,12.69,0,0,1,3.11-2.26.12.12,0,0,1,.12.2c-1,.78-2.15,1.38-3.17,2.14-.05,0-.11,0-.06-.08Z" transform="translate(-20.46 -9.31)"/></g><g id="_Group_185" data-name="&lt;Group&gt;"><path id="_Path_138" data-name="&lt;Path&gt;" class="cls-8" d="M64.39,29.15c.73-.39,1.5-1.2,2.34-1.3a.1.1,0,0,1,.08.18,7.54,7.54,0,0,1-2.38,1.21,0,0,0,0,1,0-.09Z" transform="translate(-20.46 -9.31)"/></g><g id="_Group_186" data-name="&lt;Group&gt;"><path id="_Path_139" data-name="&lt;Path&gt;" class="cls-8" d="M65.3,30.85a8.64,8.64,0,0,1,2.16-2.23c.08-.08.2,0,.14.14a9,9,0,0,1-2.25,2.14,0,0,0,0,1,0,0Z" transform="translate(-20.46 -9.31)"/></g></g><g id="_Group_187" data-name="&lt;Group&gt;"><g id="_Group_188" data-name="&lt;Group&gt;"><path id="_Path_140" data-name="&lt;Path&gt;" class="cls-8" d="M68.35,32.72a13,13,0,0,1-.16-3.84c0-.12.22-.15.23,0,.1,1.27,0,2.55,0,3.83a.05.05,0,0,1-.1,0Z" transform="translate(-20.46 -9.31)"/></g><g id="_Group_189" data-name="&lt;Group&gt;"><path id="_Path_141" data-name="&lt;Path&gt;" class="cls-8" d="M67.38,31.68c.07-.83-.18-1.91.21-2.67,0-.08.18-.09.19,0a7.58,7.58,0,0,1-.31,2.67c0,.05-.1,0-.09,0Z" transform="translate(-20.46 -9.31)"/></g><g id="_Group_190" data-name="&lt;Group&gt;"><path id="_Path_142" data-name="&lt;Path&gt;" class="cls-8" d="M69.3,31.85a8.57,8.57,0,0,1-.67-3c0-.11.15-.17.19-.06a9,9,0,0,1,.55,3.07s-.05,0-.07,0Z" transform="translate(-20.46 -9.31)"/></g></g><g id="_Group_191" data-name="&lt;Group&gt;"><g id="_Group_192" data-name="&lt;Group&gt;"><path id="_Path_143" data-name="&lt;Path&gt;" class="cls-8" d="M72.81,29.87a12.92,12.92,0,0,1-3.49-1.62c-.1-.08,0-.26.11-.2,1.17.49,2.25,1.2,3.42,1.72.05,0,0,.12,0,.1Z" transform="translate(-20.46 -9.31)"/></g><g id="_Group_193" data-name="&lt;Group&gt;"><path id="_Path_144" data-name="&lt;Path&gt;" class="cls-8" d="M71.43,30.26c-.69-.45-1.78-.73-2.27-1.42-.06-.08,0-.2.11-.16a7.73,7.73,0,0,1,2.22,1.49.05.05,0,0,1-.06.09Z" transform="translate(-20.46 -9.31)"/></g><g id="_Group_194" data-name="&lt;Group&gt;"><path id="_Path_145" data-name="&lt;Path&gt;" class="cls-8" d="M72.47,28.63a8.72,8.72,0,0,1-3-.79.1.1,0,0,1,0-.2,8.85,8.85,0,0,1,3,.92,0,0,0,0,1,0,.07Z" transform="translate(-20.46 -9.31)"/></g></g><g id="_Group_195" data-name="&lt;Group&gt;"><g id="_Group_196" data-name="&lt;Group&gt;"><path id="_Path_146" data-name="&lt;Path&gt;" class="cls-8" d="M72.07,24.26a12.89,12.89,0,0,1-2.87,2.6c-.12.07-.21-.11-.12-.2.92-.88,2-1.6,2.92-2.47,0,0,.11,0,.07.07Z" transform="translate(-20.46 -9.31)"/></g><g id="_Group_197" data-name="&lt;Group&gt;"><path id="_Path_147" data-name="&lt;Path&gt;" class="cls-8" d="M71.89,25.68c-.69.48-1.36,1.36-2.21,1.56-.1,0-.14-.12-.07-.18a7.55,7.55,0,0,1,2.23-1.46s.1,0,0,.08Z" transform="translate(-20.46 -9.31)"/></g><g id="_Group_198" data-name="&lt;Group&gt;"><path id="_Path_148" data-name="&lt;Path&gt;" class="cls-8" d="M70.79,24.09a8.92,8.92,0,0,1-1.9,2.47c-.09.09-.2,0-.15-.14a8.92,8.92,0,0,1,2-2.37s.07,0,.05,0Z" transform="translate(-20.46 -9.31)"/></g></g><g id="_Group_199" data-name="&lt;Group&gt;"><path id="_Path_149" data-name="&lt;Path&gt;" class="cls-9" d="M68.33,27.68" transform="translate(-20.46 -9.31)"/><g id="_Group_200" data-name="&lt;Group&gt;"><path id="_Path_150" data-name="&lt;Path&gt;" class="cls-9" d="M69.69,28.66a1.68,1.68,0,0,1-2.72-2,1.68,1.68,0,0,1,2.72,2Z" transform="translate(-20.46 -9.31)"/></g></g></g><g id="_Group_201" data-name="&lt;Group&gt;"><path id="_Path_151" data-name="&lt;Path&gt;" class="cls-2" d="M110.43,56.13a3.37,3.37,0,0,1,1.91-3.2,8,8,0,0,1,.72-.35,5.68,5.68,0,0,1-3-1.92,2.5,2.5,0,0,1,.59-3.47,3.35,3.35,0,0,1,3.73,0c.22.13.44.28.67.43a5.62,5.62,0,0,1,.08-3.56,2.5,2.5,0,0,1,3.27-1.3,3.37,3.37,0,0,1,2,3.17c0,.35,0,.72,0,1.09a5.91,5.91,0,0,1,3.37-1.87,2.51,2.51,0,0,1,2.72,2.24,3.37,3.37,0,0,1-1.82,3.26q-.6.35-1.29.66a6.29,6.29,0,0,1,3.51,2.35,2.51,2.51,0,0,1-.83,3.43,3.38,3.38,0,0,1-3.73-.23c-.21-.14-.42-.31-.63-.47a5.71,5.71,0,0,1-.33,3.55A2.52,2.52,0,0,1,118,61a3.37,3.37,0,0,1-1.74-3.3c0-.25,0-.53.07-.79a5.57,5.57,0,0,1-3.2,1.56A2.51,2.51,0,0,1,110.43,56.13Z" transform="translate(-20.46 -9.31)"/><g id="_Group_202" data-name="&lt;Group&gt;"><g id="_Group_203" data-name="&lt;Group&gt;"><path id="_Path_152" data-name="&lt;Path&gt;" class="cls-8" d="M117.66,47.09a12.68,12.68,0,0,1,.87,3.77c0,.14-.2.12-.23,0-.32-1.23-.43-2.51-.74-3.75a.05.05,0,0,1,.1,0Z" transform="translate(-20.46 -9.31)"/></g><g id="_Group_204" data-name="&lt;Group&gt;"><path id="_Path_153" data-name="&lt;Path&gt;" class="cls-8" d="M118.81,47.94c.08.83.53,1.85.28,2.68,0,.08-.16.09-.18,0a7.85,7.85,0,0,1-.2-2.69s.1-.06.1,0Z" transform="translate(-20.46 -9.31)"/></g><g id="_Group_205" data-name="&lt;Group&gt;"><path id="_Path_154" data-name="&lt;Path&gt;" class="cls-8" d="M116.89,48.12A8.76,8.76,0,0,1,118.11,51c0,.1-.11.21-.17.11a8.57,8.57,0,0,1-1.11-2.92s0,0,.06,0Z" transform="translate(-20.46 -9.31)"/></g></g><g id="_Group_206" data-name="&lt;Group&gt;"><g id="_Group_207" data-name="&lt;Group&gt;"><path id="_Path_155" data-name="&lt;Path&gt;" class="cls-8" d="M114,50.21a12.67,12.67,0,0,1,3.61,1.35c.12.07,0,.24-.11.2-1.2-.4-2.33-1-3.53-1.46a0,0,0,1,1,0-.09Z" transform="translate(-20.46 -9.31)"/></g><g id="_Group_208" data-name="&lt;Group&gt;"><path id="_Path_156" data-name="&lt;Path&gt;" class="cls-8" d="M115.32,49.71c.73.4,1.83.59,2.39,1.25.06.08,0,.18-.12.16a7.54,7.54,0,0,1-2.32-1.32s0-.12,0-.09Z" transform="translate(-20.46 -9.31)"/></g><g id="_Group_209" data-name="&lt;Group&gt;"><path id="_Path_157" data-name="&lt;Path&gt;" class="cls-8" d="M114.41,51.42a8.76,8.76,0,0,1,3.06.56c.11,0,.06.2,0,.2a8.76,8.76,0,0,1-3-.7,0,0,0,0,1,0-.06Z" transform="translate(-20.46 -9.31)"/></g></g><g id="_Group_210" data-name="&lt;Group&gt;"><g id="_Group_211" data-name="&lt;Group&gt;"><path id="_Path_158" data-name="&lt;Path&gt;" class="cls-8" d="M114.54,55a13.05,13.05,0,0,1,3.12-2.27.12.12,0,0,1,.12.2c-1,.78-2.15,1.38-3.18,2.14a0,0,0,1,1-.06-.07Z" transform="translate(-20.46 -9.31)"/></g><g id="_Group_212" data-name="&lt;Group&gt;"><path id="_Path_159" data-name="&lt;Path&gt;" class="cls-8" d="M114.88,53.6c.72-.39,1.49-1.19,2.34-1.29a.1.1,0,0,1,.08.18,7.87,7.87,0,0,1-2.38,1.21.05.05,0,0,1,0-.1Z" transform="translate(-20.46 -9.31)"/></g><g id="_Group_213" data-name="&lt;Group&gt;"><path id="_Path_160" data-name="&lt;Path&gt;" class="cls-8" d="M115.79,55.3a8.92,8.92,0,0,1,2.15-2.23.11.11,0,0,1,.15.14,8.8,8.8,0,0,1-2.25,2.14s-.07,0,0-.05Z" transform="translate(-20.46 -9.31)"/></g></g><g id="_Group_214" data-name="&lt;Group&gt;"><g id="_Group_215" data-name="&lt;Group&gt;"><path id="_Path_161" data-name="&lt;Path&gt;" class="cls-8" d="M118.84,57.18a13.06,13.06,0,0,1-.17-3.84c0-.12.23-.15.24,0,.09,1.27,0,2.56,0,3.83,0,.07-.09.08-.1,0Z" transform="translate(-20.46 -9.31)"/></g><g id="_Group_216" data-name="&lt;Group&gt;"><path id="_Path_162" data-name="&lt;Path&gt;" class="cls-8" d="M117.86,56.13c.08-.83-.17-1.9.22-2.67,0-.08.18-.09.19,0a7.53,7.53,0,0,1-.31,2.67.05.05,0,0,1-.1,0Z" transform="translate(-20.46 -9.31)"/></g><g id="_Group_217" data-name="&lt;Group&gt;"><path id="_Path_163" data-name="&lt;Path&gt;" class="cls-8" d="M119.79,56.31a8.67,8.67,0,0,1-.67-3,.1.1,0,0,1,.19-.06,8.67,8.67,0,0,1,.54,3.07,0,0,0,0,1-.06,0Z" transform="translate(-20.46 -9.31)"/></g></g><g id="_Group_218" data-name="&lt;Group&gt;"><g id="_Group_219" data-name="&lt;Group&gt;"><path id="_Path_164" data-name="&lt;Path&gt;" class="cls-8" d="M123.3,54.32a13,13,0,0,1-3.5-1.61c-.1-.08,0-.26.11-.21,1.18.5,2.26,1.21,3.42,1.73.06,0,0,.12,0,.09Z" transform="translate(-20.46 -9.31)"/></g><g id="_Group_220" data-name="&lt;Group&gt;"><path id="_Path_165" data-name="&lt;Path&gt;" class="cls-8" d="M121.92,54.71c-.7-.44-1.78-.72-2.28-1.42a.1.1,0,0,1,.12-.15A7.66,7.66,0,0,1,122,54.63s0,.12-.06.08Z" transform="translate(-20.46 -9.31)"/></g><g id="_Group_221" data-name="&lt;Group&gt;"><path id="_Path_166" data-name="&lt;Path&gt;" class="cls-8" d="M123,53.09a8.85,8.85,0,0,1-3-.8.1.1,0,0,1,.05-.19,8.58,8.58,0,0,1,3,.92s0,.06,0,.07Z" transform="translate(-20.46 -9.31)"/></g></g><g id="_Group_222" data-name="&lt;Group&gt;"><g id="_Group_223" data-name="&lt;Group&gt;"><path id="_Path_167" data-name="&lt;Path&gt;" class="cls-8" d="M122.55,48.72a13.06,13.06,0,0,1-2.86,2.6c-.12.07-.21-.12-.12-.2.91-.88,2-1.6,2.91-2.47,0,0,.11,0,.07.07Z" transform="translate(-20.46 -9.31)"/></g><g id="_Group_224" data-name="&lt;Group&gt;"><path id="_Path_168" data-name="&lt;Path&gt;" class="cls-8" d="M122.38,50.14c-.7.47-1.37,1.36-2.21,1.55-.11,0-.14-.11-.08-.18a7.75,7.75,0,0,1,2.23-1.46c.05,0,.1.06.06.09Z" transform="translate(-20.46 -9.31)"/></g><g id="_Group_225" data-name="&lt;Group&gt;"><path id="_Path_169" data-name="&lt;Path&gt;" class="cls-8" d="M121.28,48.55A8.58,8.58,0,0,1,119.37,51c-.09.09-.19,0-.14-.13a8.59,8.59,0,0,1,2-2.37s.06,0,0,0Z" transform="translate(-20.46 -9.31)"/></g></g><g id="_Group_226" data-name="&lt;Group&gt;"><path id="_Path_170" data-name="&lt;Path&gt;" class="cls-9" d="M118.81,52.13" transform="translate(-20.46 -9.31)"/><g id="_Group_227" data-name="&lt;Group&gt;"><path id="_Path_171" data-name="&lt;Path&gt;" class="cls-9" d="M120.17,53.12a1.68,1.68,0,0,1-2.71-2,1.68,1.68,0,0,1,2.71,2Z" transform="translate(-20.46 -9.31)"/></g></g></g><g id="_Group_228" data-name="&lt;Group&gt;"><path id="_Path_172" data-name="&lt;Path&gt;" class="cls-2" d="M21.14,86.49a2.78,2.78,0,0,1,1.57-2.64l.59-.29A4.66,4.66,0,0,1,20.83,82a2.07,2.07,0,0,1,.49-2.86,2.78,2.78,0,0,1,3.07,0l.55.36A4.58,4.58,0,0,1,25,76.52a2.05,2.05,0,0,1,2.69-1.07,2.75,2.75,0,0,1,1.62,2.61c0,.28,0,.59,0,.89a4.81,4.81,0,0,1,2.78-1.53,2.06,2.06,0,0,1,2.24,1.84,2.78,2.78,0,0,1-1.5,2.68c-.33.19-.69.37-1.06.54a5.11,5.11,0,0,1,2.88,1.94A2.06,2.06,0,0,1,34,87.24a2.78,2.78,0,0,1-3.06-.18c-.18-.12-.35-.26-.53-.39a4.58,4.58,0,0,1-.27,2.91,2.06,2.06,0,0,1-2.76.89,2.77,2.77,0,0,1-1.44-2.72c0-.21,0-.43.06-.65a4.59,4.59,0,0,1-2.63,1.29A2.07,2.07,0,0,1,21.14,86.49Z" transform="translate(-20.46 -9.31)"/><g id="_Group_229" data-name="&lt;Group&gt;"><g id="_Group_230" data-name="&lt;Group&gt;"><path id="_Path_173" data-name="&lt;Path&gt;" class="cls-8" d="M27.09,79a10.9,10.9,0,0,1,.72,3.11c0,.11-.17.1-.19,0-.27-1-.36-2.07-.61-3.08,0,0,.07-.07.08,0Z" transform="translate(-20.46 -9.31)"/></g><g id="_Group_231" data-name="&lt;Group&gt;"><path id="_Path_174" data-name="&lt;Path&gt;" class="cls-8" d="M28,79.74A6.44,6.44,0,0,1,28.27,82a.08.08,0,0,1-.15,0A6.29,6.29,0,0,1,28,79.74s.08,0,.08,0Z" transform="translate(-20.46 -9.31)"/></g><g id="_Group_232" data-name="&lt;Group&gt;"><path id="_Path_175" data-name="&lt;Path&gt;" class="cls-8" d="M26.46,79.89a7.27,7.27,0,0,1,1,2.34c0,.08-.09.17-.14.09a7.11,7.11,0,0,1-.91-2.41s0,0,.05,0Z" transform="translate(-20.46 -9.31)"/></g></g><g id="_Group_233" data-name="&lt;Group&gt;"><g id="_Group_234" data-name="&lt;Group&gt;"><path id="_Path_176" data-name="&lt;Path&gt;" class="cls-8" d="M24.06,81.61a11.14,11.14,0,0,1,3,1.11c.09.06,0,.2-.09.17C26,82.56,25,82,24,81.69a0,0,0,1,1,0-.08Z" transform="translate(-20.46 -9.31)"/></g><g id="_Group_235" data-name="&lt;Group&gt;"><path id="_Path_177" data-name="&lt;Path&gt;" class="cls-8" d="M25.16,81.2c.6.33,1.51.49,2,1,.06.06,0,.15-.09.13a6.32,6.32,0,0,1-1.92-1.09s0-.09,0-.07Z" transform="translate(-20.46 -9.31)"/></g><g id="_Group_236" data-name="&lt;Group&gt;"><path id="_Path_178" data-name="&lt;Path&gt;" class="cls-8" d="M24.41,82.61a7.07,7.07,0,0,1,2.52.46c.1,0,.05.16,0,.16a7.12,7.12,0,0,1-2.49-.57s0,0,0,0Z" transform="translate(-20.46 -9.31)"/></g></g><g id="_Group_237" data-name="&lt;Group&gt;"><g id="_Group_238" data-name="&lt;Group&gt;"><path id="_Path_179" data-name="&lt;Path&gt;" class="cls-8" d="M24.52,85.55a10.87,10.87,0,0,1,2.57-1.86.1.1,0,0,1,.1.16c-.83.64-1.77,1.14-2.61,1.77a0,0,0,0,1-.06-.07Z" transform="translate(-20.46 -9.31)"/></g><g id="_Group_239" data-name="&lt;Group&gt;"><path id="_Path_180" data-name="&lt;Path&gt;" class="cls-8" d="M24.8,84.4c.6-.32,1.23-1,1.93-1.06a.08.08,0,0,1,.06.14,6,6,0,0,1-2,1s-.08,0,0-.08Z" transform="translate(-20.46 -9.31)"/></g><g id="_Group_240" data-name="&lt;Group&gt;"><path id="_Path_181" data-name="&lt;Path&gt;" class="cls-8" d="M25.55,85.81A7,7,0,0,1,27.32,84a.08.08,0,0,1,.12.11,7,7,0,0,1-1.85,1.76s-.06,0,0,0Z" transform="translate(-20.46 -9.31)"/></g></g><g id="_Group_241" data-name="&lt;Group&gt;"><g id="_Group_242" data-name="&lt;Group&gt;"><path id="_Path_182" data-name="&lt;Path&gt;" class="cls-8" d="M28.06,87.35a10.84,10.84,0,0,1-.13-3.16c0-.1.18-.13.19,0,.07,1,0,2.1,0,3.15a0,0,0,1,1-.08,0Z" transform="translate(-20.46 -9.31)"/></g><g id="_Group_243" data-name="&lt;Group&gt;"><path id="_Path_183" data-name="&lt;Path&gt;" class="cls-8" d="M27.26,86.49a6.44,6.44,0,0,1,.17-2.2c0-.07.15-.07.16,0a6.26,6.26,0,0,1-.25,2.19s-.09,0-.08,0Z" transform="translate(-20.46 -9.31)"/></g><g id="_Group_244" data-name="&lt;Group&gt;"><path id="_Path_184" data-name="&lt;Path&gt;" class="cls-8" d="M28.84,86.63a7.22,7.22,0,0,1-.55-2.49.08.08,0,0,1,.16,0,7.23,7.23,0,0,1,.44,2.52s0,0-.05,0Z" transform="translate(-20.46 -9.31)"/></g></g><g id="_Group_245" data-name="&lt;Group&gt;"><g id="_Group_246" data-name="&lt;Group&gt;"><path id="_Path_185" data-name="&lt;Path&gt;" class="cls-8" d="M31.73,85a10.88,10.88,0,0,1-2.87-1.33c-.09-.07,0-.22.09-.17,1,.41,1.85,1,2.81,1.42,0,0,0,.1,0,.08Z" transform="translate(-20.46 -9.31)"/></g><g id="_Group_247" data-name="&lt;Group&gt;"><path id="_Path_186" data-name="&lt;Path&gt;" class="cls-8" d="M30.59,85.32c-.57-.37-1.46-.6-1.87-1.17a.09.09,0,0,1,.1-.13,6.35,6.35,0,0,1,1.82,1.23,0,0,0,0,1-.05.07Z" transform="translate(-20.46 -9.31)"/></g><g id="_Group_248" data-name="&lt;Group&gt;"><path id="_Path_187" data-name="&lt;Path&gt;" class="cls-8" d="M31.45,84A7.08,7.08,0,0,1,29,83.32a.08.08,0,0,1,0-.16,7.16,7.16,0,0,1,2.44.76s0,.06,0,.06Z" transform="translate(-20.46 -9.31)"/></g></g><g id="_Group_249" data-name="&lt;Group&gt;"><g id="_Group_250" data-name="&lt;Group&gt;"><path id="_Path_188" data-name="&lt;Path&gt;" class="cls-8" d="M31.12,80.38a10.65,10.65,0,0,1-2.36,2.14c-.1.06-.17-.09-.1-.16.75-.73,1.63-1.32,2.4-2,0,0,.09,0,.06,0Z" transform="translate(-20.46 -9.31)"/></g><g id="_Group_251" data-name="&lt;Group&gt;"><path id="_Path_189" data-name="&lt;Path&gt;" class="cls-8" d="M31,81.55c-.57.39-1.12,1.12-1.81,1.28-.09,0-.12-.09-.07-.15a6.49,6.49,0,0,1,1.84-1.2s.08,0,0,.07Z" transform="translate(-20.46 -9.31)"/></g><g id="_Group_252" data-name="&lt;Group&gt;"><path id="_Path_190" data-name="&lt;Path&gt;" class="cls-8" d="M30.07,80.24a7,7,0,0,1-1.57,2c-.07.08-.16,0-.12-.11a7.17,7.17,0,0,1,1.65-2s0,0,0,0Z" transform="translate(-20.46 -9.31)"/></g></g><g id="_Group_253" data-name="&lt;Group&gt;"><path id="_Path_191" data-name="&lt;Path&gt;" class="cls-9" d="M28,83.19" transform="translate(-20.46 -9.31)"/><g id="_Group_254" data-name="&lt;Group&gt;"><path id="_Path_192" data-name="&lt;Path&gt;" class="cls-9" d="M29.16,84a1.39,1.39,0,0,1-2.24-1.63A1.39,1.39,0,0,1,29.16,84Z" transform="translate(-20.46 -9.31)"/></g></g></g></g></svg>