<svg id="Layer_1" data-name="Layer 1" xmlns="http://www.w3.org/2000/svg" viewBox="0 0 141 27"><defs><style>.cls-1{fill:#4a9ee8;}.cls-2{fill:#fff;}</style></defs><title>Visit our facebook page</title><rect class="cls-1" width="141" height="27" rx="13.5" ry="13.5"/><path class="cls-2" d="M31.1,18.49,28,9.69a.45.45,0,0,1,0-.18c0-.15.19-.22.58-.22h.12c.31,0,.49.07.53.21l2.47,7.14.14.7h0l.14-.71L34.5,9.5c0-.14.22-.21.53-.21h.08c.39,0,.58.07.58.22a.54.54,0,0,1,0,.19l-3.06,8.79q-.08.21-.54.21h-.41C31.32,18.7,31.15,18.63,31.1,18.49Z" transform="translate(0 0)"/><path class="cls-2" d="M36.89,10.12V9.37c0-.22.22-.32.64-.32s.59.1.59.32v.75c0,.21-.21.32-.64.32S36.89,10.33,36.89,10.12ZM37,18.41V12c0-.2.17-.3.53-.3h.05q.54,0,.54.3v6.46c0,.19-.18.29-.54.29h-.05C37.12,18.7,37,18.6,37,18.41Z" transform="translate(0 0)"/><path class="cls-2" d="M40.49,18.65a2.47,2.47,0,0,1-.78-.34c-.19-.13-.28-.25-.28-.36a.87.87,0,0,1,.16-.4q.18-.27.3-.27a1.16,1.16,0,0,1,.26.15,2.53,2.53,0,0,0,.57.27,2.23,2.23,0,0,0,.75.12c.88,0,1.31-.36,1.31-1.08a1,1,0,0,0-.29-.73,3,3,0,0,0-1-.48A3,3,0,0,1,40,14.76a1.79,1.79,0,0,1-.4-1.23,1.83,1.83,0,0,1,.28-1,2.12,2.12,0,0,1,.79-.69,2.66,2.66,0,0,1,1.15-.24,4.18,4.18,0,0,1,1.22.17c.36.12.54.25.54.4a1,1,0,0,1-.15.45c-.1.18-.2.27-.28.27a2.14,2.14,0,0,1-.35-.18,1.88,1.88,0,0,0-.86-.16,1.51,1.51,0,0,0-.85.22.71.71,0,0,0-.34.62,1,1,0,0,0,.24.72,1.71,1.71,0,0,0,.8.44,6.7,6.7,0,0,1,1.3.53,1.6,1.6,0,0,1,.65.64,2.38,2.38,0,0,1,.19,1,1.94,1.94,0,0,1-.31,1.06,2.16,2.16,0,0,1-.86.75,2.65,2.65,0,0,1-1.2.27A3.62,3.62,0,0,1,40.49,18.65Z" transform="translate(0 0)"/><path class="cls-2" d="M45.26,10.12V9.37c0-.22.21-.32.64-.32s.59.1.59.32v.75c0,.21-.22.32-.65.32S45.26,10.33,45.26,10.12Zm.05,8.29V12c0-.2.18-.3.53-.3h.06c.35,0,.53.1.53.3v6.46c0,.19-.18.29-.53.29h-.06C45.49,18.7,45.31,18.6,45.31,18.41Z" transform="translate(0 0)"/><path class="cls-2" d="M49.22,18.35a1.73,1.73,0,0,1-.53-1.44V12.64H48a.25.25,0,0,1-.2-.09.58.58,0,0,1-.06-.31v-.16a.63.63,0,0,1,.06-.31.25.25,0,0,1,.2-.09h.67l.16-1.4c0-.2.17-.3.43-.3h.14c.26,0,.4.1.4.3v1.4h1.12a.23.23,0,0,1,.21.09.63.63,0,0,1,.06.31v.16a.58.58,0,0,1-.06.31.23.23,0,0,1-.21.09H49.82V16.8a1.17,1.17,0,0,0,.19.78.69.69,0,0,0,.53.21,1.81,1.81,0,0,0,.38,0l.19,0c.08,0,.15.08.2.24a1.21,1.21,0,0,1,.08.38c0,.27-.32.4-1,.4A1.91,1.91,0,0,1,49.22,18.35Z" transform="translate(0 0)"/><path class="cls-2" d="M56,17.85a3.91,3.91,0,0,1-.79-2.64,3.94,3.94,0,0,1,.8-2.67,2.84,2.84,0,0,1,2.3-.94,2.77,2.77,0,0,1,2.25.93,4.06,4.06,0,0,1,.78,2.68,3.92,3.92,0,0,1-.77,2.64,2.8,2.8,0,0,1-2.26.9A2.92,2.92,0,0,1,56,17.85Zm3.71-.69a3.38,3.38,0,0,0,.47-2,3.34,3.34,0,0,0-.47-2,1.92,1.92,0,0,0-2.87,0,3.36,3.36,0,0,0-.46,2,3.38,3.38,0,0,0,.46,2,1.64,1.64,0,0,0,1.43.63A1.67,1.67,0,0,0,59.75,17.16Z" transform="translate(0 0)"/><path class="cls-2" d="M63.45,18.18a2.12,2.12,0,0,1-.59-1.59V12q0-.3.54-.3h.05q.54,0,.54.3v4.53a1.3,1.3,0,0,0,.35,1,1.43,1.43,0,0,0,1,.34,1.82,1.82,0,0,0,.9-.26,2.4,2.4,0,0,0,.78-.68V12q0-.3.54-.3h.05q.54,0,.54.3V16.7A7.32,7.32,0,0,0,68.24,18c.05.25.08.39.08.42s-.09.19-.25.23a1.71,1.71,0,0,1-.47.08.29.29,0,0,1-.28-.21,2.13,2.13,0,0,1-.13-.43l-.06-.3a3.34,3.34,0,0,1-1,.74,2.44,2.44,0,0,1-1.11.26A2.16,2.16,0,0,1,63.45,18.18Z" transform="translate(0 0)"/><path class="cls-2" d="M70.13,18.41v-4.7a7.24,7.24,0,0,0-.08-1.26A2.89,2.89,0,0,1,70,12c0-.11.08-.19.25-.23a1.71,1.71,0,0,1,.47-.08.28.28,0,0,1,.27.2,1.72,1.72,0,0,1,.14.4l.06.28a2,2,0,0,1,1.55-1,.92.92,0,0,1,.57.15.43.43,0,0,1,.2.37,1.42,1.42,0,0,1-.08.48q-.08.24-.18.24a.83.83,0,0,1-.26-.07,1.35,1.35,0,0,0-.48-.07,1,1,0,0,0-.58.18,2.25,2.25,0,0,0-.46.39,1.63,1.63,0,0,0-.19.24v4.9c0,.19-.18.29-.53.29h-.06C70.31,18.7,70.13,18.6,70.13,18.41Z" transform="translate(0 0)"/><path class="cls-2" d="M77.94,18.41V12.64H77.4a.24.24,0,0,1-.2-.09.58.58,0,0,1-.06-.31v-.16a.63.63,0,0,1,.06-.31.24.24,0,0,1,.2-.09h.54V10.41A1.71,1.71,0,0,1,78.46,9a2,2,0,0,1,1.2-.39c.65,0,1,.13,1,.4a1.51,1.51,0,0,1-.08.38c-.06.16-.12.25-.2.25l-.2,0a1.74,1.74,0,0,0-.38,0,.69.69,0,0,0-.53.19,1.18,1.18,0,0,0-.19.8v1.16h1.16a.23.23,0,0,1,.21.09.63.63,0,0,1,.06.31v.16a.58.58,0,0,1-.06.31.23.23,0,0,1-.21.09H79.06v5.77c0,.19-.18.29-.53.29h-.06C78.12,18.7,77.94,18.6,77.94,18.41Z" transform="translate(0 0)"/><path class="cls-2" d="M81.89,18.25a1.82,1.82,0,0,1-.63-1.5,2,2,0,0,1,.63-1.59,3.36,3.36,0,0,1,1.56-.68,14.27,14.27,0,0,1,2.25-.16v-.63a1.05,1.05,0,0,0-.35-.81,1.65,1.65,0,0,0-1.12-.32,3.47,3.47,0,0,0-1,.14c-.3.1-.54.19-.74.28a1.88,1.88,0,0,1-.32.15q-.14,0-.3-.27a.92.92,0,0,1-.17-.4c0-.12.12-.24.36-.38a3.6,3.6,0,0,1,.94-.34,5.43,5.43,0,0,1,1.22-.14,3,3,0,0,1,1.94.56,1.86,1.86,0,0,1,.69,1.54v3A7.32,7.32,0,0,0,86.9,18a2.89,2.89,0,0,1,.08.42c0,.11-.08.19-.25.23a1.71,1.71,0,0,1-.47.08.28.28,0,0,1-.27-.21,2.16,2.16,0,0,1-.14-.43l-.06-.3a2.88,2.88,0,0,1-2.24,1A2.55,2.55,0,0,1,81.89,18.25Zm2.84-.71a4.65,4.65,0,0,0,1-.68V15.28c-.67,0-1.22,0-1.64.08a2.56,2.56,0,0,0-1.12.37,1.05,1.05,0,0,0-.48.95,1.11,1.11,0,0,0,.29.82,1.19,1.19,0,0,0,.85.28A2.48,2.48,0,0,0,84.73,17.54Z" transform="translate(0 0)"/><path class="cls-2" d="M89.1,17.9a3.92,3.92,0,0,1-.81-2.76,3.48,3.48,0,0,1,.91-2.72,3.22,3.22,0,0,1,2.26-.82,4.63,4.63,0,0,1,1.39.19c.41.12.61.27.61.43a1,1,0,0,1-.15.44c-.1.19-.2.28-.28.28l-.06,0a.2.2,0,0,0-.08,0,3.63,3.63,0,0,0-1.46-.32c-1.29,0-1.94.86-1.94,2.56a3.4,3.4,0,0,0,.48,2,1.85,1.85,0,0,0,1.59.63,3.2,3.2,0,0,0,1.51-.35l.15-.05c.09,0,.19.09.3.26a1,1,0,0,1,.16.42c0,.11-.1.21-.29.32a3.12,3.12,0,0,1-.77.26,4.9,4.9,0,0,1-1,.1A3.29,3.29,0,0,1,89.1,17.9Z" transform="translate(0 0)"/><path class="cls-2" d="M95.21,17.89a3.86,3.86,0,0,1-.8-2.67,4,4,0,0,1,.79-2.7,2.91,2.91,0,0,1,2.33-.92,2.47,2.47,0,0,1,2.06.89,4.18,4.18,0,0,1,.69,2.6.66.66,0,0,1-.16.34c-.11.14-.2.21-.28.21H95.62a2.57,2.57,0,0,0,.57,1.63,1.93,1.93,0,0,0,1.48.52,2.8,2.8,0,0,0,1-.14,4.7,4.7,0,0,0,.68-.28,1.63,1.63,0,0,1,.31-.14q.14,0,.3.27a.87.87,0,0,1,.16.4c0,.11-.11.23-.33.37a3.31,3.31,0,0,1-.89.34,4.49,4.49,0,0,1-1.18.14A3.22,3.22,0,0,1,95.21,17.89Zm3.88-3.21c0-1.41-.53-2.12-1.6-2.12s-1.78.71-1.87,2.12Z" transform="translate(0 0)"/><path class="cls-2" d="M102.76,17.75a4.42,4.42,0,0,1-.22.79c0,.11-.16.16-.36.16h-.05c-.27,0-.4-.1-.4-.29V8.91c0-.19.17-.29.53-.29h.06c.35,0,.53.1.53.29v3.37a3.78,3.78,0,0,1,.88-.51,2.92,2.92,0,0,1,1-.17,2.45,2.45,0,0,1,1.42.42,2.68,2.68,0,0,1,1,1.21,5.1,5.1,0,0,1,.34,1.94,5.1,5.1,0,0,1-.32,1.86,2.88,2.88,0,0,1-.9,1.27,2.2,2.2,0,0,1-1.38.45A2.89,2.89,0,0,1,102.76,17.75Zm3.11-.67a3.83,3.83,0,0,0,.43-2,3.2,3.2,0,0,0-.45-1.85,1.54,1.54,0,0,0-1.34-.64,2.67,2.67,0,0,0-.88.15,2.74,2.74,0,0,0-.78.45v3.67a3.11,3.11,0,0,0,.88.68,2,2,0,0,0,.93.24A1.35,1.35,0,0,0,105.87,17.08Z" transform="translate(0 0)"/><path class="cls-2" d="M109.48,17.85a3.86,3.86,0,0,1-.8-2.64,4,4,0,0,1,.8-2.67,2.85,2.85,0,0,1,2.3-.94,2.77,2.77,0,0,1,2.25.93,4,4,0,0,1,.79,2.68,4,4,0,0,1-.77,2.64,2.82,2.82,0,0,1-2.27.9A2.9,2.9,0,0,1,109.48,17.85Zm3.71-.69a3.38,3.38,0,0,0,.46-2,3.35,3.35,0,0,0-.46-2,1.69,1.69,0,0,0-1.45-.65,1.65,1.65,0,0,0-1.43.64,3.45,3.45,0,0,0-.45,2,3.47,3.47,0,0,0,.45,2,1.64,1.64,0,0,0,1.43.63A1.7,1.7,0,0,0,113.19,17.16Z" transform="translate(0 0)"/><path class="cls-2" d="M116.82,17.85a3.86,3.86,0,0,1-.8-2.64,4,4,0,0,1,.8-2.67,2.85,2.85,0,0,1,2.3-.94,2.81,2.81,0,0,1,2.26.93,4.06,4.06,0,0,1,.78,2.68,4,4,0,0,1-.77,2.64,2.82,2.82,0,0,1-2.27.9A2.91,2.91,0,0,1,116.82,17.85Zm3.71-.69a3.38,3.38,0,0,0,.46-2,3.35,3.35,0,0,0-.46-2,1.69,1.69,0,0,0-1.45-.65,1.65,1.65,0,0,0-1.43.64,3.45,3.45,0,0,0-.45,2,3.47,3.47,0,0,0,.45,2,1.64,1.64,0,0,0,1.43.63A1.7,1.7,0,0,0,120.53,17.16Z" transform="translate(0 0)"/><path class="cls-2" d="M129,18.51c0,.08,0,.12-.13.15a1.66,1.66,0,0,1-.46,0h0a2.86,2.86,0,0,1-.46,0,.44.44,0,0,1-.26-.14L125,15.36h0v3.05c0,.19-.18.29-.54.29h-.05c-.36,0-.53-.1-.53-.29V8.91c0-.19.17-.29.53-.29h.05c.36,0,.54.1.54.29v6h0l2.56-3.05c.09-.12.33-.19.71-.19h.05a1,1,0,0,1,.35,0c.08,0,.12.07.12.13a.44.44,0,0,1-.14.27L126.13,15l2.75,3.26A.38.38,0,0,1,129,18.51Z" transform="translate(0 0)"/><path class="cls-2" d="M15.74,12.63H12.36A.36.36,0,0,0,12,13v6.09a.36.36,0,0,0,.36.36h3.38a.36.36,0,0,0,.36-.36V13A.36.36,0,0,0,15.74,12.63Z" transform="translate(0 0)"/><path class="cls-2" d="M26,14.85a.94.94,0,0,0-.89-.95.94.94,0,0,0,.6-.88h0a1,1,0,0,0-.95-.94H21.47A4.44,4.44,0,0,0,22,9.4c-.2-.76-.56-1.38-1.42-1.48s-.22,1.25-.43,2-1.88,1.6-2.55,2.56a1.28,1.28,0,0,1-.93.57v5.66s1,.37,1.36.55a2.6,2.6,0,0,0,.87.21H24a1,1,0,0,0,.95-1h0a1,1,0,0,0-.59-.87h.13a1,1,0,0,0,.35-1.83h.25A.94.94,0,0,0,26,14.85Z" transform="translate(0 0)"/></svg>